<svg xmlns="http://www.w3.org/2000/svg" viewBox="0 0 20 20"><path fill="currentColor" d="M20,10A10,10,0,1,1,10,0,10,10,0,0,1,20,10ZM8.17,15.27A6.81,6.81,0,0,0,15,8.42c0-.11,0-.21,0-.31a5.13,5.13,0,0,0,1.21-1.25,4.93,4.93,0,0,1-1.39.38A2.4,2.4,0,0,0,15.9,5.9a4.73,4.73,0,0,1-1.53.59A2.41,2.41,0,0,0,10.2,8.14a2,2,0,0,0,.07.55,6.83,6.83,0,0,1-5-2.52A2.36,2.36,0,0,0,5,7.38a2.4,2.4,0,0,0,1.08,2A2.33,2.33,0,0,1,5,9.08v0a2.42,2.42,0,0,0,1.93,2.37,2.59,2.59,0,0,1-.63.08,2.32,2.32,0,0,1-.46,0,2.41,2.41,0,0,0,2.25,1.67,4.79,4.79,0,0,1-3,1,5.49,5.49,0,0,1-.58,0,6.74,6.74,0,0,0,3.69,1.08"/></svg>
