<?xml version="1.0" encoding="UTF-8"?>
<!-- Generator: Adobe Illustrator 25.2.3, SVG Export Plug-In . SVG Version: 6.00 Build 0)  -->
<svg width="300px" height="300px" xmlns="http://www.w3.org/2000/svg" xmlns:xlink="http://www.w3.org/1999/xlink" version="1.1" id="cp-icon" x="0px" y="0px" viewBox="0 0 108 108" style="enable-background:new 0 0 108 108;" xml:space="preserve">
<style type="text/css">
	.st0{display:none;fill:#7B8793;}
	.st1{fill:#7B8793;}
</style>
<path id="Z" class="st0" d="M37.6,66l22.1-23.5H42.8l1.5-6.9h27.6l-1.3,6.3L48.3,65.5h17.3l-1.5,6.9H36.2L37.6,66z"></path>
<path id="Y" class="st0" d="M45.4,57.3L36,35.7h8.5l5.9,14.7l12.3-14.7H72L53.2,57.3l-3.3,15h-7.8L45.4,57.3z"></path>
<path id="X" class="st0" d="M53.4,59.3l-11.8,13h-9.8L49.5,53l-8.7-17.4h8.9l6,12.2l10.7-12.2h9.8L59.5,54l9.4,18.4H60L53.4,59.3z"></path>
<path id="W" class="st0" d="M51.5,47.2L39.5,72.3h-8.3l-2.4-36.7h8.6l0.6,26.5l12.8-26.5h6.1L58,62.2l12.3-26.5h9L60.7,72.3h-8.3  L51.5,47.2z"></path>
<path id="V" class="st0" d="M34.9,35.7h8.5l4,28.2l16.3-28.2h9.3L50.8,72.3H41L34.9,35.7z"></path>
<path id="U" class="st0" d="M35.1,59.9c0-0.7,0.2-2.5,0.4-3.8l4.6-20.7H48l-4.6,20.8c-0.3,1.2-0.4,2.1-0.4,3  c0.1,3.8,2.6,6.7,7.6,6.7c5.7,0,8.4-3.5,9.5-8.6L65,35.3h7.9l-4.8,22c-2,8.9-6.5,15.3-17.8,15.3C40.3,72.7,35.1,67.5,35.1,59.9z"></path>
<path id="T" class="st0" d="M49.3,42.5H38.6l1.5-6.9h29.3l-1.5,6.9H57.2l-6.5,29.8h-7.9L49.3,42.5z"></path>
<path id="S" class="st0" d="M41.9,60.5c2.6,3.4,7.4,5.7,12.4,5.7c3.9,0,5.5-2.3,5.5-4.2c0-2.2-2.8-3.4-6.3-4.6  C48.4,55.5,42,53,42,46.5c0-5.6,5.2-11.4,14.3-11.4c5.8,0,11.3,2.1,14.6,5.9l-4.8,5.4c-2.6-3.1-7.1-4.7-10.7-4.7  c-3,0-5.1,1.8-5.1,3.8c0,2,2.8,3.1,6.3,4.3c5.1,1.9,11.6,4.3,11.6,10.7c0,6.5-5.3,12.3-14.4,12.3c-7.2,0-13.5-2.8-16.6-6.8  L41.9,60.5z"></path>
<path id="R" class="st0" d="M53.2,59.2h-6.1l-2.9,13.1h-7.8l8.1-36.7h15.7c5.9,0,11.3,4,11.3,10.3c0,6.7-4.5,11.7-10.4,12.8  l5.1,13.6h-8.6L53.2,59.2z M63.3,46.8c0-2.6-2.1-4.4-4.7-4.4h-7.8l-2.2,10.1h8.1C60.9,52.5,63.3,50.1,63.3,46.8z"></path>
<path id="Q" class="st0" d="M65.5,67.8l1.9,3l-6.3,3L59.4,71c-2.2,0.8-4.5,1.2-7,1.2c-10.2,0-18-6.4-18-16.4  c0-12,9.2-21.5,21.3-21.5c10.1,0,18,6.4,18,16.4C73.7,57.7,70.5,63.9,65.5,67.8z M65.5,51.2c0-6.2-4.5-10-10.3-10  c-7.1,0-12.7,6.2-12.7,14.1c0,6.2,4.5,10,10.3,10c0.9,0,1.8-0.1,2.7-0.3l-3.4-5.4l6.2-3l3.2,5C64,58.9,65.5,55.3,65.5,51.2z"></path>
<path id="P" class="st0" d="M44.5,35.7h15.8c7,0,11.2,4.6,11.2,10.2c0,5.4-3.7,13.5-15.2,13.5h-9.2l-2.9,13h-7.8L44.5,35.7z   M63.3,46.6c0-2.4-1.8-4.2-4.6-4.2h-7.9l-2.2,10.1h8.1C60.9,52.5,63.3,49.9,63.3,46.6z"></path>
<path id="O" class="st0" d="M55.7,35c10.1,0,18,6.4,18,16.4c0,12-9.2,21.6-21.3,21.6c-10.2,0-18-6.4-18-16.4  C34.3,44.5,43.6,35,55.7,35z M55.2,42c-7.1,0-12.7,6.2-12.7,14.1c0,6.2,4.5,10,10.3,10c7,0,12.7-6.2,12.7-14.1  C65.5,45.8,61.1,42,55.2,42z"></path>
<path id="N" class="st0" d="M47.1,46.3l-5.7,26h-7.8l8.1-36.7h8l11.4,25.1l5.6-25.1h7.8l-8.1,36.7h-7.5L47.1,46.3z"></path>
<path id="M" class="st0" d="M67.9,45.5L51.6,72.3h-3.4l-4.5-26.8l-5.9,26.8h-7.8l8.1-36.7h10.7L52.6,59l14.1-23.3h11.3l-8.1,36.7H62  L67.9,45.5z"></path>
<path id="L_1_" class="st0" d="M50,35.9h7.8l-6.5,29.8h15.5l-1.5,6.9H41.9L50,35.9z"></path>
<path id="K" class="st0" d="M48.9,57.3l-3.8,3.7l-2.5,11.3h-7.8l8.1-36.7h7.8l-3.5,15.7l16-15.7h10.1L54.9,52.9l11.3,19.5H57  L48.9,57.3z"></path>
<path id="J" class="st0" d="M43.3,62.7c1.2,1.8,3.4,3,5.9,3c3.6,0,5.7-2.3,6.5-5.9l5.4-24.5h7.8L63.5,60  c-1.9,8.7-6.2,12.7-13.7,12.7c-4.1,0-8.3-1.3-10.7-4.1L43.3,62.7z"></path>
<path id="I" class="st0" d="M54.1,35.7h7.8l-8.1,36.7h-7.8L54.1,35.7z"></path>
<path id="H" class="st0" d="M62,56.9H44.7l-3.4,15.4h-7.8l8.1-36.7h7.8l-3.1,14.4h17.3l3.2-14.4h7.9l-8.1,36.7h-7.9L62,56.9z"></path>
<path id="G" class="st0" d="M57.5,35c7.8,0,12.9,4.2,15.1,8.9L65.4,47c-1.3-3-5-5.1-9-5.1c-6.8,0-12.8,6-12.8,14.1  c0,5.6,3.9,10,10.3,10c3.1,0,5.6-1.2,7.4-2.8l0.9-4.5h-9.8l1.5-6.7h17.5l-3.2,14.2c-3.6,4.2-8.9,6.7-14.9,6.7c-10,0-18-6.3-18-16.4  C35.4,44.2,44.8,35,57.5,35z"></path>
<path id="F" class="st0" d="M45.1,35.7h26l-1.5,6.7H51.4l-1.7,8h17.7l-1.5,6.7H48.1l-3.4,15.3H37L45.1,35.7z"></path>
<path id="E" class="st0" d="M45.1,35.7h26l-1.5,6.7H51.4l-1.7,8h17.7l-1.5,6.7H48.1l-1.9,8.5h18.1l-1.4,6.8H37L45.1,35.7z"></path>
<path id="D" class="st0" d="M73.1,51.4c0,9.6-6.5,20.9-23.8,20.9H34.9L43,35.7h14.2C65.3,35.7,73.1,41.9,73.1,51.4z M64.9,51.9  c0-5.3-3.8-9.4-9.2-9.4h-6.4l-5.1,22.9h6.5C59.6,65.5,64.9,59.3,64.9,51.9z"></path>
<path id="C" class="st0" d="M56.5,35c9,0,14.1,4.8,16.3,10.4L65.3,48c-1.4-3.8-4.9-6-9.1-6c-6.9,0-12.8,6-12.8,14.1  c0,5.7,4,10,10.3,10c3.1,0,6.5-1.6,8.6-4.2l6,4.1C64.1,71.3,58,73,53.2,73c-10.1,0-18-6.4-18-16.4C35.2,43.6,45.1,35,56.5,35z"></path>
<path id="B" class="st1" d="M44.2,35.7H62c6.4,0,10,4.1,10,8.8c0,4.9-3.9,9.1-8.4,9.6c3.4,0.9,5.3,4.2,5.3,7.4  c0,5.1-3.6,10.9-12.8,10.9h-20L44.2,35.7z M57,57.1h-9.7l-1.9,8.6h10.1c3.6,0,5.6-2.3,5.6-4.9C61,58.6,59.5,57.1,57,57.1z   M59.8,42.3h-9.2l-1.8,8.1h9.8c3.8,0,5-2.5,5-4.6C63.6,43.9,62,42.3,59.8,42.3z"></path>
<path id="A" class="st0" d="M64,66H47.6l-3.7,6.3h-9l22.3-36.7H67l6,36.7h-8.1L64,66z M51.2,59.3h12.2L61,42.4L51.2,59.3z"></path>
<path id="Ring" class="st1" d="M95,0H13C5.8,0,0,5.8,0,13v82c0,7.2,5.8,13,13,13h82c7.2,0,13-5.8,13-13V13C108,5.8,102.2,0,95,0z   M105,94.3c0,6-4.9,10.7-10.7,10.7H13.7C7.8,105,3,100.2,3,94.3V13.7C3,7.8,7.8,3,13.7,3h80.5c6,0,10.7,4.8,10.7,10.7V94.3z"></path>
</svg>
