<svg xmlns="http://www.w3.org/2000/svg" width="300px" height="240px" viewBox="0 0 300 240" style="enable-background:new 0 0 300 240;" xml:space="preserve">
  <style type="text/css">
	.st0{fill:#C0CFCE;}
	.st1{fill:none;}
</style>
  <path id="XMLID_3_" class="st0" d="M264.33,58.969c-16.457-4.399-33.599-6.352-50.942-5.58c-7.506,0.312-15.063,1.166-22.613,2.551
	c-11.056,2.025-22.137,5.206-32.957,9.578c-10.839,4.379-21.008,9.783-30.38,16.011c-6.38,4.244-12.421,8.884-18.038,13.873
	c-12.993,11.486-23.974,24.8-32.75,39.395l-0.521,0.488l-12.95-3.788l-0.161-1.173c6.703-11.586,14.619-22.423,23.77-32.371
	c5.305-5.76,10.98-11.185,17.068-16.272c14.242-11.905,30.566-21.825,48.712-29.157c18.128-7.324,36.762-11.527,55.276-12.857
	c7.914-0.57,15.765-0.609,23.581-0.151c13.463,0.811,26.728,3.09,39.555,6.786l0.73,0.943l-6.684,11.721L264.33,58.969z" />
  <path id="XMLID_2_" class="st0" d="M246.519,135.392c0.303-26.648,6.508-52.734,17.811-76.423c2.039-4.311,4.269-8.552,6.65-12.667
	c4.602,1.294,9.152,2.795,13.645,4.468c46.173,17.282,85.226,53.118,105.159,102.452c19.921,49.307,16.731,102.237-4.477,146.744
	c-1.107,2.284-2.26,4.558-3.452,6.805l-7.087-17.54c17.652-40.094,19.719-86.961,2.023-130.76
	c-18.57-45.962-55.115-79.236-98.295-94.995l24.811,61.324l-35.384-15.02c-0.208,2.604,0.214,5.253,1.254,7.829l0.317,0.783
	c1.355,3.355,3.613,6.087,6.383,7.993c0.845,0.663,1.801,1.216,2.841,1.658l27.694,11.77l17.319,42.865L272.4,160.859
	c-0.215,2.607,0.172,5.291,1.211,7.862l0.316,0.783c1.358,3.36,3.661,6.067,6.429,7.982c0.837,0.644,1.807,1.214,2.802,1.651
	l43.738,18.565l17.352,42.948l-49.336-20.934c-0.19,2.597,0.219,5.265,1.26,7.842l0.316,0.783c1.358,3.36,3.631,6.079,6.404,7.989
	c0.837,0.644,1.763,1.209,2.805,1.657l41.688,17.67l49.241,121.876l-16.677,6.738l-18.782-46.488
	c-2.039,2.461-4.145,4.878-6.301,7.259c-5.315,5.735-10.989,11.16-17.081,16.241c-12.949,10.856-27.63,20.034-43.851,27.142
	l-23.115-57.21c11.268-25.554,16.142-53.893,13.664-82.407c-1.449-16.184-5.255-32.459-11.667-48.328
	c-6.411-15.869-14.979-30.22-25.18-42.871c-19.421-23.963-44.826-41.804-73.08-52.124l0.097,0.239l24.635,60.974l-35.249-14.947
	c-0.164,2.587,0.215,5.253,1.256,7.829l0.316,0.784c1.356,3.354,3.613,6.087,6.414,7.98c0.814,0.675,1.771,1.228,2.81,1.67
	l27.601,11.701l17.319,42.865l-51.239-21.749c-0.213,2.606,0.216,5.273,1.255,7.844l0.316,0.783c1.358,3.36,3.619,6.084,6.386,8
	c0.837,0.644,1.777,1.225,2.833,1.638l43.561,18.516l17.36,42.967l-49.198-20.892c-0.19,2.597,0.219,5.265,1.26,7.842l0.316,0.784
	c1.358,3.359,3.632,6.079,6.404,7.988c0.836,0.644,1.793,1.197,2.835,1.645l41.519,17.639l63.801,157.912l-16.714,6.752
	l-25.795-63.845c-10.218,2.534-20.564,4.151-30.857,4.893c-7.912,0.576-15.762,0.616-23.57,0.182
	c-11.232-0.702-22.327-2.384-33.14-5.078l-10.212-25.276c11.225-25.536,16.124-53.814,13.613-82.301
	c-1.442-16.187-5.248-32.461-11.66-48.331c-6.412-15.869-14.979-30.22-25.187-42.868c-19.419-23.977-44.862-41.825-73.097-52.153
	l24.69,61.11l-35.079-14.859c-0.165,2.587,0.215,5.253,1.256,7.829l0.316,0.783c1.355,3.354,3.631,6.08,6.426,7.976
	c0.844,0.663,1.777,1.226,2.81,1.67l27.523,11.682l17.319,42.866l-51.173-21.727c-0.183,2.594,0.216,5.274,1.254,7.844l0.317,0.784
	c1.357,3.36,3.631,6.079,6.386,7.999c0.855,0.637,1.82,1.208,2.833,1.639l43.518,18.497l17.352,42.948l-49.129-20.861
	c-0.177,2.591,0.219,5.264,1.261,7.841l0.316,0.783c1.358,3.36,3.631,6.08,6.397,7.992c0.837,0.644,1.794,1.197,2.824,1.649
	l41.492,17.608l49.29,121.998l-16.756,6.77l-34.173-84.58c-37.695-19.255-68.866-51.669-85.953-93.962
	c-19.933-49.334-16.721-102.246,4.488-146.752c2.057-4.319,4.288-8.56,6.668-12.675c4.621,1.286,9.152,2.795,13.632,4.473
	c24.568,9.196,47.122,23.663,65.882,42.609l0.008-0.28l0.008-0.667c0.425-25.273,6.122-50.007,16.468-72.683
	c0.45-0.929,0.891-1.883,1.339-2.798c2.027-4.307,4.257-8.547,6.669-12.675c4.583,1.301,9.134,2.802,13.626,4.475
	C205.211,101.977,227.789,116.434,246.519,135.392" />
  <rect id="XMLID_1_" class="st1" width="300" height="240" />
</svg>
