<svg xmlns="http://www.w3.org/2000/svg" viewBox="0 0 237.594 56.729" fill="#fff">
  <path d="M37.261 6.29a22.104 22.104 0 00-5.934-3.19 21.43 21.43 0 00-2.882-.802 22.355 22.355 0 00-8.98 0 21.5 21.5 0 00-2.881.802 22.116 22.116 0 00-5.932 3.19l-.088.033-1.391-1.1.038-.15a24.086 24.086 0 014.491-2.775 23.955 23.955 0 0120.507 0 23.998 23.998 0 014.487 2.775l.042.15-1.392 1.1-.085-.034z" />
  <path d="M31.327 14.727a23.983 23.983 0 015.934-8.438c.461-.425.942-.832 1.435-1.216q.745.576 1.443 1.216a23.963 23.963 0 010 35.331q-.371.336-.756.66v-2.487a22.106 22.106 0 00-.617-32.257l.004 8.696-3.573-3.573a2.256 2.256 0 00-.233 1.016v.111a2.33 2.33 0 00.385 1.289 1.644 1.644 0 00.265.342l2.795 2.798v6.078l-5.182-5.188a2.259 2.259 0 00-.24 1.018v.111a2.345 2.345 0 00.391 1.29 1.801 1.801 0 00.26.339l4.417 4.417v6.089l-4.982-4.981a2.298 2.298 0 00-.233 1.018v.11a2.332 2.332 0 00.387 1.29 1.71 1.71 0 00.26.34l4.212 4.206v17.28h-2.365v-6.591q-.554.3-1.125.574a24.14 24.14 0 01-2.882 1.139 23.86 23.86 0 01-6.681 1.149V39.79a22.113 22.113 0 005.723-9.371 22.296 22.296 0 000-12.93 22.146 22.146 0 00-6.34-9.952v8.679l-3.56-3.558a2.339 2.339 0 00-.233 1.016v.111a2.3 2.3 0 00.389 1.289 1.49 1.49 0 00.26.342l2.788 2.785v6.078l-5.174-5.175a2.256 2.256 0 00-.234 1.018v.111a2.34 2.34 0 00.385 1.29 1.52 1.52 0 00.264.339l4.398 4.402v6.092l-4.968-4.97a2.297 2.297 0 00-.232 1.019v.11a2.333 2.333 0 00.387 1.29 1.735 1.735 0 00.264.34l4.192 4.194V56.73h-2.37v-9.052a23.73 23.73 0 01-10.672-4.313v-3.583a22.074 22.074 0 005.712-9.361 22.2 22.2 0 00.959-6.465 22.205 22.205 0 00-.96-6.465 22.166 22.166 0 00-6.34-9.957v8.665L5.74 12.659a2.339 2.339 0 00-.233 1.016v.111a2.307 2.307 0 00.39 1.289 1.652 1.652 0 00.261.342l2.78 2.779v6.078L3.77 19.105a2.314 2.314 0 00-.233 1.018v.111a2.355 2.355 0 00.384 1.29 1.83 1.83 0 00.265.339l4.393 4.398v6.089l-4.96-4.962a2.322 2.322 0 00-.233 1.018v.11a2.339 2.339 0 00.386 1.29 1.791 1.791 0 00.263.34l4.19 4.189v17.297H5.849V39.64A23.958 23.958 0 017.774 6.29 23.56 23.56 0 019.21 5.072c.5.384.978.791 1.441 1.216a24.065 24.065 0 015.932 8.438l.014-.034.034-.08a23.998 23.998 0 015.587-8.049c.1-.09.201-.185.3-.275.46-.425.94-.832 1.438-1.216q.742.576 1.44 1.216a24.018 24.018 0 015.93 8.438zM64.615 20.588c-.251 0-.938-.038-1.606-.08-.31-.009-.624-.022-.892-.033-.295-.013-.534-.023-.657-.023-.171 0-.693.03-1.153.057-.371.022-.704.041-.79.041-.324 0-.488-.137-.488-.41 0-.34.236-.387.467-.387 1.138-.035 1.267-1.252 1.381-2.325l.109-1.043c.244-2.36.498-4.802.77-6.833a9.175 9.175 0 00.08-1.031 1 1 0 00-.282-.728 1.134 1.134 0 00-.925-.347c-.262 0-.589 0-.589-.408 0-.286.193-.425.59-.425.148 0 .57.02.962.059l.538.034c.182.012.327.022.398.022.237 0 .874-.017 1.513-.057l.13-.004a76.984 76.984 0 011.338-.035 4.974 4.974 0 013.24.852 3.078 3.078 0 011.158 2.418 3.19 3.19 0 01-1.636 2.84 3.512 3.512 0 01-1.1.419c1.86.38 2.837 1.404 2.837 2.989 0 2.882-2.778 4.438-5.393 4.438zm-1.755-6.096c-.087.82-.203 1.92-.212 2.077-.104.758-.234 1.934-.234 2.19 0 .554.28.898 1.674.898a4.632 4.632 0 002.88-.803 2.962 2.962 0 001.133-2.392c0-2.629-2.51-2.984-4.966-2.984-.155 0-.156 0-.184.119.002 0-.039.397-.091.895zm.24-1.853c.706.051 1.422.068 1.671.068a3.441 3.441 0 002.613-.81 2.681 2.681 0 00.698-1.781 2.635 2.635 0 00-1.16-2.168 3.463 3.463 0 00-2.036-.484c-1.04 0-1.201.138-1.326 1.132l-.414 3.402a3.044 3.044 0 00-.045.64z" />
  <path d="M60.629 6.767c.147 0 .561.019.947.058.414.021.817.057.951.057.24 0 .88-.017 1.523-.057.624-.02 1.265-.04 1.459-.04a4.828 4.828 0 013.141.817 2.913 2.913 0 011.103 2.3 3.02 3.02 0 01-1.558 2.706 5.4 5.4 0 01-1.692.566v.037c2.2.253 3.351 1.263 3.351 2.939 0 2.61-2.49 4.284-5.239 4.284-.25 0-.933-.037-1.596-.08-.665-.019-1.323-.056-1.559-.056-.31 0-1.75.099-1.943.099-.252 0-.335-.08-.335-.256s.062-.234.315-.234c1.279-.04 1.417-1.362 1.534-2.469.274-2.63.565-5.534.877-7.865a9.448 9.448 0 00.082-1.052 1.153 1.153 0 00-.314-.82 1.29 1.29 0 00-1.047-.409c-.281 0-.435 0-.435-.254 0-.114.022-.27.435-.27m4.142 6.093a3.646 3.646 0 002.726-.859 2.823 2.823 0 00.74-1.886 2.783 2.783 0 00-1.23-2.296 3.561 3.561 0 00-2.121-.51c-1.11 0-1.344.198-1.479 1.267l-.388 3.194a3.378 3.378 0 00-.058 1.011c.741.06 1.541.08 1.81.08m-.683 6.949a4.725 4.725 0 002.98-.838 3.095 3.095 0 001.186-2.51c0-2.824-2.78-3.138-5.12-3.138-.253 0-.29.06-.332.237 0 .039-.292 2.744-.308 2.998-.101.74-.234 1.926-.234 2.2 0 .815.62 1.05 1.828 1.05m-3.46-13.35c-.645 0-.741.362-.741.578 0 .562.483.562.742.562a.984.984 0 01.82.308.838.838 0 01.234.613 8.382 8.382 0 01-.072.937l-.009.08c-.272 2.033-.526 4.484-.772 6.854l-.105 1.015c-.134 1.268-.301 2.164-1.238 2.193-.403 0-.612.182-.612.54 0 .17.063.564.642.564.087 0 .423-.02.798-.041.437-.026.981-.057 1.145-.057.122 0 .359.01.65.022.27.011.583.025.9.034.463.03 1.303.08 1.605.08 3.162 0 5.547-1.975 5.547-4.592a2.97 2.97 0 00-2.401-3.001 2.775 2.775 0 00.594-.278 3.337 3.337 0 001.705-2.969 3.226 3.226 0 00-1.213-2.536 5.106 5.106 0 00-3.338-.888c-.185 0-.77.018-1.363.036l-.105.003c-.626.04-1.26.057-1.514.057-.068 0-.21-.01-.39-.022a33.564 33.564 0 00-.545-.034 11.734 11.734 0 00-.963-.058zm2.622 6.035c.002-.103.018-.228.049-.481l.025-.207.388-3.193c.115-.912.214-.996 1.174-.996a3.228 3.228 0 011.948.456 2.46 2.46 0 01.444 3.712 3.306 3.306 0 01-2.507.768c-.222 0-.87-.015-1.521-.059zm-.146 1.137h.03c2.38 0 4.813.336 4.813 2.83a2.775 2.775 0 01-1.075 2.273 4.496 4.496 0 01-2.784.768c-1.404 0-1.52-.352-1.52-.744 0-.249.129-1.414.231-2.158.012-.173.133-1.328.213-2.092l.092-.877zM75.795 20.666a3.359 3.359 0 01-2.53-.884 3.734 3.734 0 01-.978-2.501c0-2.237 1.544-5.335 4.442-5.335a3.057 3.057 0 013.33 3.252c0 2.205-1.356 5.468-4.264 5.468zm.975-8.001c-1.669 0-2.79 2.336-2.79 4.519 0 1.328.472 2.747 1.797 2.747 1.912 0 2.625-2.928 2.625-4.773 0-1.515-.64-2.493-1.632-2.493z" />
  <path d="M76.729 12.1a2.916 2.916 0 013.176 3.098c0 2.217-1.367 5.314-4.11 5.314a3.175 3.175 0 01-2.421-.84 3.548 3.548 0 01-.933-2.391c0-2.123 1.48-5.18 4.288-5.18m-.952 7.984c2.022 0 2.779-3.021 2.779-4.927 0-1.694-.757-2.647-1.786-2.647-1.839 0-2.943 2.49-2.943 4.672 0 1.634.638 2.902 1.95 2.902m.952-8.292c-2.998 0-4.595 3.187-4.595 5.488a3.892 3.892 0 001.022 2.609 3.502 3.502 0 002.639.93c3.014 0 4.418-3.355 4.418-5.622a3.233 3.233 0 00-3.484-3.405zm-.952 7.985c-1.524 0-1.643-1.986-1.643-2.595 0-2.108 1.06-4.365 2.636-4.365.898 0 1.478.919 1.478 2.34 0 1.918-.766 4.62-2.471 4.62zM83.697 20.683c-.865 0-1.34-.67-1.34-1.885a6.579 6.579 0 01.051-.74c.01-.093.02-.175.024-.242l.699-4.638-.696-.048c-.112 0-.49-.021-.49-.269 0-.252.319-.359.44-.4.61-.245 1.15-.546 1.98-1.936.229-.36.332-.487.464-.487.049 0 .207.02.207.272a1.78 1.78 0 01-.04.372l-.252 1.483c-.02.065.002.074.085.074.563 0 .99-.007 1.062-.018h.095c.535 0 .844.025.844.48a.373.373 0 01-.135.351c-.1.107-.402.16-1.014.16l-1.05-.023c-.107.025-.11.025-.139.256l-.603 4.07a7.134 7.134 0 00-.096 1.108c0 .7.324.78.568.78a2.354 2.354 0 001.454-.704c.26-.203.373-.268.469-.268a.263.263 0 01.258.272c0 .574-1.519 1.98-2.845 1.98z" />
  <path d="M84.83 10.191c.052 0 .052.08.052.118a1.607 1.607 0 01-.034.33l-.255 1.5c-.041.214.041.254.237.254.093 0 .951 0 1.083-.02.583 0 .763 0 .763.329 0 .14-.02.195-.06.218-.138.138-.72.138-.935.138l-1.047-.022c-.198.039-.255.076-.294.39l-.603 4.066a7.37 7.37 0 00-.098 1.13c0 .39.098.935.722.935a2.452 2.452 0 001.552-.74 1.215 1.215 0 01.37-.232.11.11 0 01.105.118 3.344 3.344 0 01-2.692 1.826c-1.11 0-1.186-1.225-1.186-1.73 0-.39.062-.76.076-.973l.722-4.79-.86-.06c-.073 0-.35-.018-.35-.115 0-.132.218-.214.335-.253a3.88 3.88 0 002.063-2.005c.078-.118.254-.412.334-.412m0-.307c-.223 0-.361.19-.561.505l-.03.047c-.814 1.361-1.31 1.64-1.92 1.887-.118.038-.528.175-.528.538 0 .265.246.423.658.423l.505.035-.672 4.462c-.007.09-.016.17-.026.262a6.732 6.732 0 00-.053.755c0 1.84 1.044 2.039 1.493 2.039 1.43 0 3-1.498 3-2.134a.415.415 0 00-.412-.426c-.154 0-.296.092-.558.297a2.242 2.242 0 01-1.365.676c-.145 0-.415 0-.415-.627a7.002 7.002 0 01.095-1.082l.603-4.07c.008-.063.015-.103.02-.127l1.01.022h.001c.647 0 .961-.056 1.133-.205a.547.547 0 00.176-.46c0-.635-.496-.635-1.07-.635-.1.01-.425.019-1 .02l.237-1.395a1.83 1.83 0 00.039-.382.374.374 0 00-.36-.425zM94.661 20.646c-.621 0-.803-.933-.976-2.173a4.6 4.6 0 01-3.602 2.173c-1.478 0-2.003-1.312-2.003-2.435 0-3.024 3.232-6.265 5.507-6.265a3.684 3.684 0 011.16.224 1.026 1.026 0 00.298.069c.102 0 .31-.197.526-.63.16-.3.28-.5.449-.5.046 0 .276.017.276.332a1.927 1.927 0 01-.04.274l-.06.302c-.122.52-.398 1.699-.454 1.965l-.502 2.724a13.758 13.758 0 00-.137 1.43c0 .512.203 1.014.41 1.014.184 0 .512-.304.74-.586.618-.723.707-.815.88-.815.154 0 .25.161.25.31 0 .515-1.629 2.587-2.722 2.587zm-1.152-7.924c-2.054 0-3.855 3.277-3.855 5.257a1.268 1.268 0 001.307 1.425c1.348 0 2.634-1.477 2.884-2.797l.602-3.075a.599.599 0 00-.116-.51 1.078 1.078 0 00-.822-.3z" />
  <path d="M96.02 11.264c.122 0 .122.137.122.177 0 .093-.063.349-.063.406-.097.41-.427 1.81-.487 2.104l-.504 2.727a14.102 14.102 0 00-.138 1.458c0 .547.218 1.168.563 1.168.296 0 .7-.448.859-.644.583-.68.664-.757.762-.757.06 0 .094.097.094.156 0 .427-1.556 2.433-2.566 2.433-.551 0-.704-1.15-.879-2.433-.39.582-1.616 2.433-3.7 2.433-1.516 0-1.85-1.48-1.85-2.28 0-3.054 3.233-6.112 5.353-6.112a3.55 3.55 0 011.114.216 1.166 1.166 0 00.345.077c.313 0 .626-.642.665-.72.062-.114.211-.41.31-.41m-5.06 8.294c1.382 0 2.767-1.498 3.036-2.921l.602-3.074c.117-.665-.447-.994-1.09-.994-2.102 0-4.008 3.311-4.008 5.411a1.407 1.407 0 001.46 1.578m5.06-8.6c-.254 0-.4.233-.563.539l-.003.004-.021.04a1.264 1.264 0 01-.403.547 1.135 1.135 0 01-.219-.057 3.84 3.84 0 00-1.225-.237c-2.367 0-5.66 3.234-5.66 6.419 0 1.288.667 2.587 2.157 2.587a4.543 4.543 0 003.503-1.938c.175 1.134.402 1.938 1.076 1.938 1.192 0 2.874-2.183 2.874-2.74a.433.433 0 00-.402-.464c-.255 0-.368.132-.996.865a1.528 1.528 0 01-.626.537 1.23 1.23 0 01-.255-.86 13.65 13.65 0 01.136-1.415l.501-2.715c.054-.26.332-1.442.453-1.96l.03-.13.009-.034v-.036l.02-.102a2.112 2.112 0 00.043-.304.434.434 0 00-.43-.485zm-5.06 8.293a1.112 1.112 0 01-1.153-1.27c0-1.92 1.793-5.105 3.701-5.105a.93.93 0 01.705.246.45.45 0 01.082.388l-.6 3.068c-.235 1.237-1.48 2.673-2.734 2.673zM105.97 20.683c-.524 0-.838-.408-.838-1.09 0-.464.176-2.576.177-2.597l.063-.914a10.75 10.75 0 00.093-1.314c0-.303-.053-1.81-1.093-1.81-.838 0-1.915 1.116-2.3 3.567l-.407 2.646c-.21 1.341-.271 1.512-.875 1.512-.499 0-.737-.058-.737-.385a3.986 3.986 0 01.144-.776l.578-3.976a9.046 9.046 0 00.06-1.09c0-.35-.052-.936-.393-.936-.323 0-.539.488-.617.698-.081.217-.171.41-.378.41a.362.362 0 01-.327-.387c0-.524.883-2.274 1.868-2.274.78 0 .906 1.16.927 1.95a4.328 4.328 0 013.31-1.932 1.443 1.443 0 011.376 1.035 6.83 6.83 0 01.226 2.434l-.235 2.116a12.493 12.493 0 00-.061 1.27c0 .564.155.564.221.564a.625.625 0 00.397-.146c.11-.077.502-.498.712-.724.1-.107.181-.195.22-.234l.189-.188.11.412a3.097 3.097 0 01-2.41 2.16z" />
  <path d="M100.988 12.121c.76 0 .777 1.518.777 2.2h.04a4.44 4.44 0 013.42-2.182 1.298 1.298 0 011.232.936 8.04 8.04 0 01.215 2.434l-.232 2.044a12.6 12.6 0 00-.063 1.287c0 .423.08.717.375.717a.774.774 0 00.485-.174c.172-.12.817-.838.953-.974l.042.155a3.026 3.026 0 01-2.262 1.965c-.663 0-.684-.76-.684-.936 0-.403.14-2.139.177-2.584l.062-.916a10.693 10.693 0 00.094-1.325c0-.817-.27-1.964-1.247-1.964-.875 0-2.042 1.086-2.451 3.697l-.408 2.647c-.215 1.381-.273 1.381-.723 1.381-.583 0-.583-.095-.583-.23a3.988 3.988 0 01.139-.742l.58-3.988a9.053 9.053 0 00.062-1.113c0-.215 0-1.09-.547-1.09-.371 0-.623.428-.76.799-.095.254-.155.31-.234.31-.134 0-.173-.173-.173-.234 0-.485.854-2.12 1.714-2.12m0-.307c-1.089 0-2.021 1.85-2.021 2.427a.51.51 0 00.48.54c.33 0 .45-.318.522-.508.135-.365.32-.6.472-.6.146 0 .24.308.24.783a8.852 8.852 0 01-.057 1.06l-.582 3.997a3.787 3.787 0 00-.142.785c0 .539.536.539.89.539.743 0 .82-.314 1.027-1.642l.408-2.647c.395-2.521 1.5-3.437 2.147-3.437.913 0 .94 1.487.94 1.657a10.56 10.56 0 01-.092 1.288l-.064.932c-.001.016-.178 2.133-.178 2.605 0 .767.38 1.244.992 1.244a3.26 3.26 0 002.569-2.273v-.04l-.01-.04-.042-.155-.138-.514-.376.376c-.04.04-.123.129-.225.238-.176.19-.59.634-.687.702a.481.481 0 01-.309.12c-.008 0-.067-.072-.067-.411a12.372 12.372 0 01.06-1.256l.232-2.04.003-.085a7.336 7.336 0 00-.238-2.5 1.584 1.584 0 00-1.516-1.127 4.276 4.276 0 00-3.178 1.684c-.06-.79-.28-1.702-1.06-1.702zM111.422 20.683c-.553 0-.7-.965-.7-1.475a35.903 35.903 0 01.816-5.672l.02-.159a1.746 1.746 0 00.02-.225c0-.04 0-.068-.069-.167a1.292 1.292 0 00-.556-.086c-.048 0-.185.016-.316.03a4.745 4.745 0 01-.306.029.28.28 0 01-.31-.274.39.39 0 01.426-.404 5.035 5.035 0 00.61-.038l.431-.042.327-.059a10.987 10.987 0 011.103-.174c.3 0 .316.224.316.27 0 .078-.201.989-.223 1.071l-.739 4.097a8.991 8.991 0 00-.115 1.334c0 .38.082.431.162.431.085 0 .25-.067.555-.385a1.273 1.273 0 00.11-.145c.287-.413.414-.56.56-.56.111 0 .231.09.231.289 0 .969-1.634 2.314-2.353 2.314zm1.402-10.51c-.364 0-.816-1.124-.816-1.184 0-.17.74-1.013.952-1.013.33 0 .815.943.815 1.107a.59.59 0 01-.12.32l-.275.309c-.15.203-.38.46-.556.46z" />
  <path d="M112.96 8.13c.197 0 .661.836.661.953a.545.545 0 01-.118.274l-.235.25c-.075.1-.33.412-.443.412-.22 0-.663-.994-.663-1.03a2.989 2.989 0 01.798-.86m-.042 3.992c.081 0 .162.018.162.116 0 .041-.176.875-.217 1.032l-.742 4.109a9.185 9.185 0 00-.117 1.361c0 .174 0 .585.315.585.287 0 .64-.411.7-.468.079-.097.405-.622.526-.622.038 0 .076.04.076.135 0 .876-1.58 2.16-2.2 2.16-.409 0-.545-.875-.545-1.321 0-.876.077-1.364.813-5.646.02-.177.043-.293.043-.41a.378.378 0 00-.097-.255 1.222 1.222 0 00-.682-.152c-.096 0-.54.06-.622.06-.058 0-.156-.023-.156-.12a.238.238 0 01.272-.251 9.954 9.954 0 001.055-.081c.23-.037 1.222-.232 1.416-.232m.042-4.299c-.296 0-1.106.914-1.106 1.167 0 .104.475 1.337.97 1.337.08 0 .29 0 .69-.535l.213-.224.021-.022.017-.027a.795.795 0 00.164-.435c0-.181-.512-1.26-.97-1.26zm-.042 3.992a9.95 9.95 0 00-1.127.175c-.149.027-.273.05-.337.06l-.41.04a4.906 4.906 0 01-.597.037.544.544 0 00-.579.558.431.431 0 00.463.427c.043 0 .18-.013.322-.03.124-.013.252-.028.3-.029a1.124 1.124 0 01.463.072.145.145 0 01.01.022 1.911 1.911 0 01-.021.211l-.021.172a35.722 35.722 0 00-.815 5.679c0 .605.18 1.629.852 1.629.787 0 2.508-1.409 2.508-2.468a.4.4 0 00-.384-.442c-.23 0-.385.19-.687.626-.034.05-.062.09-.078.11-.328.342-.449.353-.461.354a2.256 2.256 0 00-.008-.278 8.974 8.974 0 01.112-1.305l.742-4.11c.007-.021.222-.978.222-1.087a.423.423 0 00-.469-.423zM118.917 20.683c-1.851 0-3.002-1.243-3.002-3.245 0-2.496 2.07-5.511 4.638-5.511 1.355 0 2.447.83 2.447 1.517a.771.771 0 01-.778.78.675.675 0 01-.538-.248c-.11-.148-.453-.592-.531-.688a1.766 1.766 0 00-1.147-.506c-1.243 0-2.688 1.692-2.688 3.875 0 1.734.859 2.689 2.42 2.689a2.468 2.468 0 001.78-.68l.087-.096c.286-.325.401-.433.523-.433a.32.32 0 01.33.332c0 .542-1.594 2.214-3.541 2.214z" />
  <path d="M120.553 12.08c1.303 0 2.294.798 2.294 1.364a.618.618 0 01-.625.626.538.538 0 01-.442-.216 20.86 20.86 0 00-.509-.663 1.864 1.864 0 00-1.265-.563c-1.346 0-2.842 1.75-2.842 4.029 0 2.003 1.114 2.842 2.573 2.842a2.612 2.612 0 001.887-.72c.076-.076.407-.488.505-.488a.166.166 0 01.175.178 3.95 3.95 0 01-3.387 2.06c-1.868 0-2.848-1.303-2.848-3.09 0-2.437 2.013-5.359 4.484-5.359m0-.307c-2.654 0-4.791 3.1-4.791 5.666a3.076 3.076 0 003.155 3.398c1.938 0 3.694-1.705 3.694-2.368a.473.473 0 00-.482-.486c-.194 0-.337.141-.642.488-.035.04-.063.073-.08.089a2.293 2.293 0 01-1.67.632c-1.461 0-2.266-.9-2.266-2.535 0-2.096 1.363-3.722 2.535-3.722a1.63 1.63 0 011.06.484c.05.068.39.508.46.61l.015.02.032.034a.82.82 0 00.65.294.924.924 0 00.931-.933c0-.773-1.136-1.671-2.601-1.671zM137.713 23.877c-.78 0-1.65-.422-1.65-1.027a1.725 1.725 0 01.164-.462c.052-.128.113-.29.113-.29l.045-.101c.195-.433.248-.55.474-.55.385 0 .385.381.385.544.042.791.553 1.052.724 1.052.435 0 .624-.716.686-1.024a16.833 16.833 0 00.273-1.897h-.001c-.027 0-.256.077-.343.107a8.197 8.197 0 01-3.145.535c-4.25 0-7.104-2.723-7.104-6.776a7.387 7.387 0 017.359-7.57 10.291 10.291 0 014.449 1.206 4.96 4.96 0 00.564.256c-.003-.005.025-.026.076-.095a.58.58 0 01.457-.276c.105 0 .348.045.348.465 0 .1-.02.394-.039.68-.018.263-.036.52-.036.604 0 .137.03.497.058.852.028.352.055.697.055.822 0 .45-.278.485-.363.485-.338 0-.417-.306-.468-.619a3.116 3.116 0 00-.917-1.691 6.621 6.621 0 00-4.459-1.66 4.792 4.792 0 00-3.61 1.297 6.527 6.527 0 00-1.573 4.798c0 4.414 2.76 6.39 5.496 6.39a4.4 4.4 0 003.223-1.124 13.081 13.081 0 00.54-3.98c0-.44-.697-.604-1.136-.604h-.698a.482.482 0 01-.292-.45c0-.11.045-.366.464-.366l.28.013c.626.03 2.145.102 2.407.102.127 0 .471-.04.808-.079.338-.038.668-.075.785-.075.168 0 .277.145.277.37 0 .274-.121.315-.483.438-.66.213-.684.22-.98 3.292a24.905 24.905 0 01-.707 4.547 2.748 2.748 0 01-2.506 1.86z" />
  <path d="M135.693 6.571a9.739 9.739 0 014.38 1.19 5.1 5.1 0 00.62.272c.041 0 .097 0 .213-.157.158-.195.259-.213.333-.213.137 0 .195.116.195.311 0 .193-.075 1.11-.075 1.285 0 .27.113 1.422.113 1.673 0 .158-.038.332-.21.332-.177 0-.255-.116-.316-.49a3.272 3.272 0 00-.953-1.767 6.8 6.8 0 00-4.574-1.715 5.005 5.005 0 00-3.72 1.344 6.797 6.797 0 00-1.617 4.906c0 4.808 3.12 6.543 5.649 6.543a4.546 4.546 0 003.35-1.19c.405-.588.567-3.29.567-4.067 0-.548-.743-.758-1.29-.758h-.697a.38.38 0 01-.14-.297c0-.152.117-.211.311-.211.023 0 2.355.115 2.687.115.253 0 1.36-.154 1.593-.154.102 0 .123.135.123.216 0 .17-.02.17-.427.31-.723.231-.744.389-1.036 3.405a27.673 27.673 0 01-.699 4.516 2.607 2.607 0 01-2.36 1.753c-.715 0-1.496-.39-1.496-.873 0-.042.255-.644.269-.704.22-.486.238-.544.373-.544.194 0 .233.135.233.388.045.876.62 1.207.876 1.207.472 0 .724-.584.836-1.148a16.625 16.625 0 00.276-1.928c0-.078-.041-.156-.114-.156a2.673 2.673 0 00-.491.137 7.953 7.953 0 01-3.037.508c-4.01 0-6.95-2.513-6.95-6.622a7.226 7.226 0 017.205-7.417m0-.307a7.54 7.54 0 00-7.513 7.724c0 4.144 2.917 6.93 7.258 6.93a8.199 8.199 0 003.145-.528l.048-.016.129-.043a20.1 20.1 0 01-.255 1.649c-.09.444-.276.91-.537.91-.069-.001-.531-.177-.57-.915 0-.446-.18-.68-.539-.68-.325 0-.416.2-.615.639l-.038.085-.013.028-.007.03c-.008.023-.053.133-.1.252-.163.405-.176.444-.176.52 0 .697.95 1.182 1.803 1.182a2.911 2.911 0 002.654-1.972 24.995 24.995 0 00.711-4.577c.287-2.97.308-2.976.824-3.14l.003-.002.05-.017c.366-.125.588-.2.588-.585 0-.36-.224-.523-.43-.523-.123 0-.386.03-.803.077-.302.034-.68.078-.791.078a137.151 137.151 0 01-2.686-.116c-.456 0-.618.268-.618.52a.65.65 0 00.345.586l.05.017h.748c.396 0 .982.143.982.45a13.434 13.434 0 01-.513 3.894 4.326 4.326 0 01-3.096 1.057c-2.659 0-5.341-1.928-5.341-6.236a6.384 6.384 0 011.529-4.69 4.646 4.646 0 013.5-1.252 6.468 6.468 0 014.368 1.635 2.954 2.954 0 01.856 1.593c.039.238.12.743.619.743.238 0 .517-.167.517-.639 0-.127-.027-.477-.056-.834-.026-.335-.057-.714-.057-.84 0-.082.018-.335.036-.595.02-.29.039-.587.039-.689 0-.589-.418-.619-.502-.619a.72.72 0 00-.572.328l-.01.013c-.074-.032-.202-.09-.421-.198a10.49 10.49 0 00-4.543-1.234zM150.798 20.646c-.613 0-.794-.935-.969-2.175a4.613 4.613 0 01-3.6 2.175c-1.482 0-2.007-1.312-2.007-2.435 0-3.024 3.234-6.265 5.51-6.265a3.546 3.546 0 011.15.224 1.153 1.153 0 00.312.069c.123 0 .35-.278.52-.633.187-.363.308-.496.45-.496.044 0 .268.016.268.33a2.21 2.21 0 01-.034.272c-.011.059-.02.112-.022.137l-.098.438c-.136.58-.345 1.469-.393 1.696l-.5 2.723a13.753 13.753 0 00-.137 1.43c0 .522.199 1.014.408 1.014.175 0 .505-.295.74-.587.608-.712.707-.814.879-.814.162 0 .252.184.252.31 0 .515-1.632 2.587-2.729 2.587zm-1.145-7.924c-2.056 0-3.86 3.277-3.86 5.257a1.27 1.27 0 001.31 1.425c1.342 0 2.63-1.477 2.885-2.798l.604-3.074a.6.6 0 00-.117-.51 1.08 1.08 0 00-.822-.3z" />
  <path d="M152.164 11.264c.114 0 .114.137.114.177 0 .093-.055.349-.055.406-.096.41-.427 1.81-.488 2.104l-.502 2.727a13.881 13.881 0 00-.138 1.458c0 .547.211 1.168.562 1.168.291 0 .701-.448.859-.644.581-.68.665-.757.758-.757.058 0 .1.097.1.156 0 .427-1.56 2.433-2.576 2.433-.542 0-.694-1.15-.871-2.433-.393.582-1.62 2.433-3.699 2.433-1.523 0-1.853-1.48-1.853-2.28 0-3.054 3.235-6.112 5.357-6.112a3.446 3.446 0 011.102.216 1.294 1.294 0 00.36.077c.309 0 .62-.642.657-.72.06-.114.215-.41.313-.41m-5.06 8.294c1.379 0 2.76-1.498 3.036-2.921l.602-3.074c.117-.665-.447-.994-1.09-.994-2.103 0-4.014 3.311-4.014 5.411a1.41 1.41 0 001.465 1.578m5.06-8.6c-.24 0-.396.21-.585.574a1.368 1.368 0 01-.401.556 1.36 1.36 0 01-.24-.06 3.7 3.7 0 00-1.205-.234c-2.369 0-5.664 3.234-5.664 6.419 0 1.288.668 2.587 2.16 2.587a4.548 4.548 0 003.503-1.94c.177 1.14.403 1.94 1.067 1.94 1.167 0 2.883-2.085 2.883-2.74a.445.445 0 00-.407-.464c-.253 0-.38.15-.992.866a1.573 1.573 0 01-.626.536 1.21 1.21 0 01-.254-.86 13.492 13.492 0 01.135-1.413l.5-2.717c.044-.212.24-1.05.377-1.628l.108-.462.008-.035v-.035l.018-.109a2.35 2.35 0 00.037-.297.43.43 0 00-.421-.485zm-5.06 8.293a1.113 1.113 0 01-1.157-1.27c0-1.92 1.795-5.105 3.706-5.105a.93.93 0 01.705.246.45.45 0 01.083.388l-.602 3.068c-.24 1.236-1.486 2.673-2.735 2.673zM157.34 20.683c-.487 0-.809 0-.809-.348 0-.1.033-.369.051-.49l.532-3.156a14.247 14.247 0 00.155-1.843c0-.597-.1-1.307-.57-1.307-.214 0-.452.104-.786 1.347.005.02-.09.388-.324.388-.286 0-.294-.462-.294-.466 0-1.351.791-2.862 1.85-2.862.916 0 1.144 1.205 1.214 2.028.726-1.329 1.547-2.028 2.39-2.028.69 0 .835.381.835.7 0 .018-.053 1.695-.602 1.695-.23 0-.303-.252-.342-.386-.125-.585-.34-.689-.653-.689-.869 0-1.245 2.189-1.405 3.123l-.584 3.543c-.077.57-.127.751-.658.751z" />
  <path d="M160.749 12.1c.49 0 .682.197.682.547 0 .485-.174 1.54-.45 1.54-.133 0-.173-.217-.211-.333-.103-.508-.33-.742-.783-.742-1.03 0-1.399 2.339-1.574 3.35l-.566 3.445c-.074.545-.094.622-.507.622-.465 0-.656 0-.656-.194 0-.096.033-.351.05-.468l.532-3.152a14.147 14.147 0 00.156-1.87c0-.658-.118-1.46-.724-1.46-.368 0-.62.292-.933 1.46 0 .042-.08.275-.176.275-.114 0-.14-.274-.14-.312 0-1.246.727-2.708 1.697-2.708.936 0 1.052 1.539 1.09 2.374h.038c.274-.565 1.189-2.374 2.475-2.374m0-.307c-.587 0-1.425.319-2.29 1.707-.125-.805-.443-1.707-1.313-1.707-1.181 0-2.005 1.589-2.005 3.015 0 .249.12.62.448.62.304 0 .44-.337.474-.51.33-1.226.536-1.226.635-1.226.376 0 .417.807.417 1.154a13.875 13.875 0 01-.152 1.816l-.531 3.154c-.002.01-.055.37-.055.519 0 .502.49.502.963.502.66 0 .732-.305.812-.888l.564-3.437.018-.1c.127-.74.515-2.993 1.253-2.993.216 0 .389.037.481.496l.024.083c.044.149.145.497.49.497.736 0 .756-1.83.756-1.848 0-.257-.096-.854-.99-.854zM169.162 20.646c-.898 0-1.058-1.091-1.087-1.912a3.726 3.726 0 01-2.998 1.912 2.55 2.55 0 01-2.475-2.725c0-2.68 2.736-5.975 4.962-5.975a2.366 2.366 0 011.308.4c.32-2.02.74-4.78.74-5.035a.3.3 0 00-.032-.144 2.134 2.134 0 00-.902-.109c-.549 0-.837-.047-.963-.156a.293.293 0 01-.088-.236.35.35 0 01.383-.345c.186-.038 2.475-.249 2.735-.272h.002c.229 0 .378.118.378.287 0 .185-.09.89-.188 1.625l-1.386 9.38a7.105 7.105 0 00-.065.911c0 .595.166.936.456.936.315 0 .757-.44.936-.755.27-.46.32-.547.542-.547a.295.295 0 01.288.325c0 .67-1.414 2.435-2.546 2.435zm-1.617-7.962c-1.86 0-3.37 2.91-3.37 4.808a1.69 1.69 0 001.564 1.892c1.162 0 2.302-1.45 2.471-2.65l.486-3.214a.564.564 0 00-.132-.47 1.374 1.374 0 00-1.019-.366z" />
  <path d="M170.759 6.202c.059 0 .213.019.213.134 0 .235-.175 1.501-.213 1.794l-1.36 9.189a7.312 7.312 0 00-.067.933c0 .878.339 1.09.61 1.09.409 0 .895-.525 1.07-.834.254-.432.27-.468.408-.468.118 0 .135.118.135.172 0 .566-1.345 2.28-2.393 2.28-.916 0-.939-1.42-.939-2.24h-.036c-.326.588-1.362 2.24-3.11 2.24a2.401 2.401 0 01-2.322-2.571c0-2.49 2.63-5.82 4.809-5.82a2.463 2.463 0 011.425.49c.309-1.932.775-4.989.775-5.28a.397.397 0 00-.074-.251 1.92 1.92 0 00-1.012-.156 2.08 2.08 0 01-.862-.118c-.018-.019-.035-.038-.035-.12 0-.153.135-.191.229-.191.213-.04 2.749-.273 2.749-.273m-5.019 13.335c1.28 0 2.447-1.537 2.622-2.782l.486-3.213c.097-.664-.602-1.012-1.303-1.012-1.946 0-3.523 2.979-3.523 4.962a1.83 1.83 0 001.718 2.045m5.019-13.643h-.014l-.014.001c-.411.038-2.415.223-2.75.273a.498.498 0 00-.507.499.444.444 0 00.12.33c.181.16.48.215 1.084.215a3.134 3.134 0 01.776.061.255.255 0 01.003.038c-.001.231-.358 2.624-.703 4.797a2.339 2.339 0 00-1.19-.315c-2.47 0-5.116 3.597-5.116 6.128a2.7 2.7 0 002.63 2.878 3.664 3.664 0 002.875-1.625c.083.777.35 1.625 1.21 1.625 1.229 0 2.7-1.856 2.7-2.587a.447.447 0 00-.443-.48c-.31 0-.402.16-.652.585-.196.345-.601.718-.827.718-.186 0-.301-.3-.301-.783a7.347 7.347 0 01.058-.864l1.365-9.213.027-.202c.114-.851.19-1.455.19-1.637a.47.47 0 00-.521-.442zM165.74 19.23c-.97 0-1.41-.9-1.41-1.738 0-1.796 1.47-4.655 3.215-4.655a1.242 1.242 0 01.903.313.407.407 0 01.096.348l-.486 3.21c-.16 1.144-1.23 2.522-2.318 2.522zM176.286 20.646a2.357 2.357 0 01-1.998-.731 3.308 3.308 0 01-.861-2.303c0-2.316 1.669-5.666 4.688-5.666 1.257 0 2.007.554 2.007 1.48 0 .487-.254 2.908-5.23 3.2l-.006.085c-.01.126-.024.28-.024.413a2.31 2.31 0 002.452 2.358 2.59 2.59 0 001.66-.57c.021-.016.06-.053.11-.097.301-.273.42-.364.529-.364a.292.292 0 01.295.308c0 .638-1.64 1.887-3.622 1.887zm1.404-7.924c-1.2 0-2.095 1.076-2.661 3.2a5.732 5.732 0 002.73-.755 1.83 1.83 0 00.922-1.45.9.9 0 00-.991-.995z" />
  <path d="M178.115 12.1c.604 0 1.854.157 1.854 1.326 0 .408-.174 2.802-5.222 3.055 0 .116-.038.408-.038.642a2.468 2.468 0 002.605 2.513 2.76 2.76 0 001.754-.603c.08-.06.451-.428.545-.428a.14.14 0 01.142.154c0 .486-1.504 1.733-3.469 1.733a2.21 2.21 0 01-1.884-.681 3.184 3.184 0 01-.821-2.199c0-2.103 1.56-5.512 4.534-5.512m-3.288 3.993a6.206 6.206 0 003.02-.799 1.97 1.97 0 00.987-1.577 1.05 1.05 0 00-1.144-1.149c-1.947 0-2.63 2.59-2.863 3.525m3.288-4.3c-3.117 0-4.842 3.44-4.842 5.819a3.463 3.463 0 00.908 2.413 2.523 2.523 0 002.105.774c2.012 0 3.777-1.271 3.777-2.04a.446.446 0 00-.45-.462c-.17 0-.316.117-.634.405-.043.04-.078.072-.097.087a2.448 2.448 0 01-1.568.54 2.162 2.162 0 01-2.298-2.206c0-.112.01-.24.019-.351 4.984-.337 5.241-2.84 5.241-3.346 0-1.023-.808-1.633-2.16-1.633zm-2.878 3.956c.546-1.907 1.37-2.874 2.453-2.874a.744.744 0 01.836.842 1.683 1.683 0 01-.848 1.32 5.26 5.26 0 01-2.441.712zM188.766 20.683c-.52 0-.83-.408-.83-1.09 0-.406.133-2.138.175-2.598l.055-.912a9.891 9.891 0 00.094-1.315c0-.186-.031-1.81-1.086-1.81-.842 0-1.92 1.116-2.303 3.567l-.41 2.646c-.209 1.341-.27 1.512-.87 1.512-.503 0-.742-.058-.742-.385a4.376 4.376 0 01.142-.775l.586-3.977c.03-.225.05-.787.05-1.09 0-.35-.052-.936-.387-.936-.327 0-.542.488-.619.698-.082.217-.172.41-.376.41a.367.367 0 01-.33-.387c0-.524.881-2.274 1.864-2.274.779 0 .91 1.18.933 1.948a4.282 4.282 0 013.317-1.93 1.466 1.466 0 011.374 1.035 7.036 7.036 0 01.221 2.435l-.234 2.115a12.464 12.464 0 00-.064 1.27c0 .564.16.564.22.564a.614.614 0 00.398-.146 8.623 8.623 0 00.658-.664c.127-.136.233-.25.283-.297l.194-.185.097.417a3.103 3.103 0 01-2.41 2.154z" />
  <path d="M183.78 12.121c.763 0 .782 1.518.782 2.2h.037a4.449 4.449 0 013.43-2.182 1.306 1.306 0 011.23.936 8.296 8.296 0 01.21 2.434l-.231 2.044a12.57 12.57 0 00-.064 1.287c0 .423.085.717.37.717a.765.765 0 00.489-.174c.175-.12.813-.838.958-.974l.036.155a3.018 3.018 0 01-2.261 1.965c-.658 0-.677-.76-.677-.936 0-.403.133-2.139.175-2.584l.056-.916a9.913 9.913 0 00.093-1.325c0-.817-.272-1.964-1.239-1.964-.881 0-2.048 1.086-2.455 3.697l-.41 2.647c-.215 1.381-.274 1.381-.718 1.381-.589 0-.589-.095-.589-.23a4.427 4.427 0 01.14-.742l.587-3.988c.032-.237.05-.801.05-1.113 0-.215 0-1.09-.539-1.09-.377 0-.626.428-.763.799-.096.254-.157.31-.231.31-.136 0-.177-.173-.177-.234 0-.485.859-2.12 1.71-2.12m0-.307c-1.087 0-2.018 1.85-2.018 2.427a.518.518 0 00.485.54c.327 0 .451-.33.518-.508.135-.365.322-.6.476-.6.107 0 .232.206.232.783 0 .336-.02.866-.047 1.072l-.588 3.985a4.165 4.165 0 00-.142.785c0 .539.539.539.896.539.738 0 .815-.314 1.022-1.642l.41-2.647c.368-2.361 1.373-3.437 2.151-3.437.906 0 .932 1.487.932 1.657a9.529 9.529 0 01-.091 1.285l-.058.937c-.04.432-.175 2.186-.175 2.603 0 .767.377 1.244.984 1.244a3.26 3.26 0 002.568-2.273v-.036l-.008-.034-.036-.156-.122-.52-.389.367c-.05.049-.162.167-.294.308-.174.186-.536.574-.626.636a.473.473 0 01-.314.121c-.003 0-.064-.078-.064-.41a12.35 12.35 0 01.062-1.256l.231-2.04.003-.085a7.561 7.561 0 00-.233-2.498 1.602 1.602 0 00-1.516-1.13 4.228 4.228 0 00-3.182 1.681c-.062-.79-.282-1.698-1.066-1.698zM195.001 20.683c-1.49 0-2.491-.671-2.491-1.67a.598.598 0 01.617-.659c.465 0 .56.164 1.091 1.068.138.24.293.51.991.51 1.084 0 1.312-.606 1.312-1.115 0-.727-.402-1.275-1.19-2.094-1.035-1.076-1.56-1.787-1.56-2.694 0-1.238 1.043-2.102 2.535-2.102 1.129 0 1.98.56 1.98 1.303a.672.672 0 01-.66.697c-.377 0-.585-.227-.816-.619-.256-.427-.475-.643-.958-.643a.813.813 0 00-.86.78 2.41 2.41 0 00.756 1.466c1.506 1.6 2.109 2.286 2.109 3.458 0 1.708-1.538 2.314-2.856 2.314z" />
  <path d="M196.306 12.08c1.07 0 1.826.528 1.826 1.15a.52.52 0 01-.507.543c-.293 0-.463-.172-.682-.543a1.161 1.161 0 00-1.092-.72.969.969 0 00-1.013.934 2.598 2.598 0 00.819 1.596c1.524 1.617 2.046 2.24 2.046 3.329 0 1.694-1.62 2.16-2.702 2.16-1.484 0-2.338-.662-2.338-1.516a.446.446 0 01.464-.505c.375 0 .434.097.958.991a1.067 1.067 0 001.124.586c1.227 0 1.465-.743 1.465-1.268 0-.758-.389-1.325-1.232-2.2-1.048-1.09-1.517-1.751-1.517-2.588 0-1.247 1.113-1.949 2.381-1.949m0-.307c-1.583 0-2.688.928-2.688 2.256 0 .959.54 1.696 1.602 2.8.868.902 1.147 1.385 1.147 1.988 0 .638-.39.96-1.158.96-.608 0-.724-.2-.858-.432-.542-.925-.67-1.144-1.224-1.144a.75.75 0 00-.771.812c0 .908.818 1.824 2.645 1.824 1.498 0 3.01-.763 3.01-2.468 0-1.231-.615-1.932-2.13-3.54a2.33 2.33 0 01-.736-1.385.661.661 0 01.706-.626c.416 0 .592.176.828.57a1.11 1.11 0 00.946.693.824.824 0 00.814-.85c0-.832-.917-1.458-2.133-1.458zM207.472 20.56a3.36 3.36 0 01-2.526-.882 3.75 3.75 0 01-.975-2.506c0-2.236 1.539-5.333 4.43-5.333a3.056 3.056 0 013.33 3.251c0 2.206-1.354 5.469-4.26 5.469zm.975-8.005c-1.668 0-2.79 2.337-2.79 4.52 0 1.326.471 2.744 1.792 2.744 1.92 0 2.634-2.924 2.634-4.768 0-1.516-.642-2.496-1.636-2.496z" />
  <path d="M208.402 11.993a2.914 2.914 0 013.176 3.097c0 2.22-1.364 5.315-4.106 5.315a3.176 3.176 0 01-2.418-.836 3.556 3.556 0 01-.93-2.397c0-2.12 1.479-5.18 4.278-5.18m-.953 7.981c2.03 0 2.787-3.012 2.787-4.922 0-1.693-.756-2.65-1.789-2.65-1.838 0-2.943 2.494-2.943 4.674 0 1.636.64 2.898 1.945 2.898m.953-8.288c-2.992 0-4.585 3.187-4.585 5.487a3.836 3.836 0 001.02 2.613 3.498 3.498 0 002.635.928c3.01 0 4.413-3.355 4.413-5.623a3.233 3.233 0 00-3.483-3.405zm-.953 7.98c-1.52 0-1.638-1.982-1.638-2.59 0-2.109 1.06-4.366 2.636-4.366.9 0 1.482.92 1.482 2.342 0 1.916-.77 4.615-2.48 4.615zM212.161 23.965c-.59 0-.677-.315-.677-.503 0-.016.323-1.652.74-1.652.165 0 .264.159.264.424 0 .406.14.647.376.647.296 0 .635-.333.899-2.803l.601-5.464c.064-.563.159-1.414.159-1.531-.012-.034-.14-.06-.876-.06l-.436.008a.986.986 0 01-.202-.011h-.007c-.31 0-.348-.264-.348-.462 0-.314.067-.485.423-.485l1.037.021a4.71 4.71 0 00.624-.06 9.521 9.521 0 012.341-5.21 2.636 2.636 0 011.979-.888c.628 0 .987.2.987.547 0 .017-.16 1.672-.542 1.672-.234 0-.368-.334-.368-.425a1.385 1.385 0 00-.304-.419.853.853 0 00-.556-.283c-1.418 0-1.896 3.1-2.177 5.045a11.09 11.09 0 011.618.041.404.404 0 01.386.404c0 .486-.35.486-.605.486h-.66a17.406 17.406 0 00-.536-.012 1.24 1.24 0 00-.326.022c-.045.113-.205 1.292-.23 1.62l-.395 3.627c-.313 3.024-.686 3.891-1.58 4.82a2.586 2.586 0 01-1.609.884z" />
  <path d="M219.058 6.09c.307 0 .834.063.834.394 0 .038-.215 1.517-.388 1.517-.118 0-.216-.231-.216-.27a1.403 1.403 0 00-.347-.527.99.99 0 00-.666-.33c-1.595 0-2.06 3.311-2.355 5.353a13.021 13.021 0 011.773.039c.214.037.256.154.256.252 0 .315-.158.332-.452.332h-.66c-.222-.007-.398-.011-.536-.011a1.34 1.34 0 00-.381.031 7.366 7.366 0 00-.328 1.753l-.394 3.622c-.307 2.958-.66 3.817-1.538 4.73a2.464 2.464 0 01-1.499.836c-.12 0-.524 0-.524-.349 0-.118.368-1.498.586-1.498.096 0 .112.191.112.27 0 .546.236.801.529.801.468 0 .796-.546 1.051-2.941l.53-4.79c.017-.214.23-2.027.23-2.221a.183.183 0 00-.098-.175 7.258 7.258 0 00-.93-.038c-.068 0-.28.008-.436.008a1.093 1.093 0 01-.168-.008c-.157 0-.236-.056-.236-.312 0-.272.036-.33.27-.33l1.035.02a5.155 5.155 0 00.756-.08 9.542 9.542 0 012.319-5.234 2.481 2.481 0 011.87-.843m0-.308a2.776 2.776 0 00-2.085.93 9.484 9.484 0 00-2.363 5.185 4.143 4.143 0 01-.497.042l-1.029-.02c-.515 0-.584.322-.584.638 0 .515.31.611.515.619a1.566 1.566 0 00.197.008c.097 0 .214-.003.308-.005l.127-.003c.385 0 .598.008.715.014-.023.276-.1.96-.148 1.397-.038.337-.068.615-.075.691l-.528 4.781c-.189 1.77-.44 2.668-.746 2.668-.164 0-.222-.255-.222-.494 0-.426-.225-.578-.419-.578-.601 0-.894 1.788-.894 1.806 0 .154.06.656.832.656a2.656 2.656 0 001.68-.889l.003-.004.038-.037c.92-.957 1.303-1.842 1.622-4.912l.394-3.62a13.109 13.109 0 01.23-1.506c.041-.002.097-.004.173-.004.136 0 .309.004.525.011h.671c.227 0 .759 0 .759-.64a.553.553 0 00-.51-.554 9.566 9.566 0 00-1.47-.043c.264-1.808.755-4.738 1.999-4.738a.693.693 0 01.452.242 1.092 1.092 0 01.266.396c.046.192.222.489.51.489.568 0 .697-1.807.697-1.825 0-.439-.427-.7-1.142-.7zM62.866 40.519a6.895 6.895 0 01-1.571-.202 4.06 4.06 0 01-1.274-.485.69.69 0 01-.273-.298 4.45 4.45 0 01-.172-.655q-.016-.068-.224-.813a4.962 4.962 0 01-.241-1.2c0-.385.248-.415.323-.415.271.011.39.322.46.555a3.373 3.373 0 001.31 1.804 3.655 3.655 0 002.184.732 2.959 2.959 0 002.007-.698 2.109 2.109 0 00.808-1.663 2.019 2.019 0 00-.742-1.577 8.514 8.514 0 00-2.297-.978 7.585 7.585 0 01-2.899-1.535 3.003 3.003 0 01-.88-2.241 3.136 3.136 0 011.142-2.502 4.938 4.938 0 014.604-.666l.625.262a.259.259 0 00.103.024.205.205 0 00.118-.057l.127-.107a.244.244 0 01.198-.071h.001c.149 0 .377.078.377.596 0 .09.04.39.117.891l.145.934a3.29 3.29 0 01.046.39c0 .404-.265.435-.347.435-.229 0-.355-.287-.44-.537a2.88 2.88 0 00-1.258-1.54 3.925 3.925 0 00-2.14-.609 2.228 2.228 0 00-1.524.538 1.662 1.662 0 00-.602 1.318 1.931 1.931 0 00.39 1.22 2.3 2.3 0 00.756.643c.282.14.981.395 2.136.78 2.286.748 3.446 2.004 3.446 3.733a3.667 3.667 0 01-1.284 2.88 4.78 4.78 0 01-3.255 1.114z" />
  <path d="M63.435 27.541a4.21 4.21 0 011.637.282l.624.262a.406.406 0 00.163.037.346.346 0 00.216-.092l.128-.109a.12.12 0 01.099-.034h.012c.14 0 .213.15.213.442q0 .154.118.915l.145.933a3.181 3.181 0 01.045.368c0 .187-.064.281-.194.281-.098 0-.197-.146-.295-.434a3.046 3.046 0 00-1.32-1.62 4.056 4.056 0 00-2.223-.633 2.37 2.37 0 00-1.626.576 1.82 1.82 0 00-.654 1.434 2.091 2.091 0 00.423 1.314 2.457 2.457 0 00.808.687q.44.216 2.156.788 3.338 1.093 3.341 3.587a3.505 3.505 0 01-1.231 2.765 4.61 4.61 0 01-3.154 1.076 6.737 6.737 0 01-1.536-.198 3.867 3.867 0 01-1.224-.464.55.55 0 01-.216-.23 4.453 4.453 0 01-.164-.627 41.562 41.562 0 00-.226-.822 4.844 4.844 0 01-.235-1.158c0-.172.057-.263.17-.263l.016.001c.109.005.209.153.295.444a3.51 3.51 0 001.367 1.885 3.777 3.777 0 002.275.762 3.133 3.133 0 002.107-.734 2.251 2.251 0 00.862-1.78 2.162 2.162 0 00-.795-1.695 9.161 9.161 0 00-2.348-1.006 7.5 7.5 0 01-2.84-1.5 2.842 2.842 0 01-.835-2.13 2.973 2.973 0 011.087-2.386 4.198 4.198 0 012.81-.924m0-.307a4.515 4.515 0 00-3.008.997 3.28 3.28 0 00-1.196 2.62 3.15 3.15 0 00.927 2.35 7.712 7.712 0 002.957 1.571 8.372 8.372 0 012.245.948 1.849 1.849 0 01.688 1.461 1.939 1.939 0 01-.752 1.546 2.815 2.815 0 01-1.909.661 3.45 3.45 0 01-2.094-.702 3.221 3.221 0 01-1.253-1.723c-.053-.177-.19-.647-.576-.665h-.002a.497.497 0 00-.506.57 5.016 5.016 0 00.248 1.242c.137.49.21.76.222.807a3.697 3.697 0 00.18.68.838.838 0 00.33.365 4.112 4.112 0 001.322.505 7.07 7.07 0 001.607.206 4.929 4.929 0 003.357-1.152 3.813 3.813 0 001.336-2.996c0-1.802-1.196-3.107-3.554-3.88-1.126-.375-1.839-.635-2.116-.77a2.157 2.157 0 01-.702-.603 1.777 1.777 0 01-.356-1.123 1.515 1.515 0 01.548-1.202 2.055 2.055 0 011.424-.5 3.771 3.771 0 012.058.585 2.726 2.726 0 011.193 1.456c.067.195.22.646.587.646.231 0 .501-.155.501-.59a3.403 3.403 0 00-.049-.415l-.144-.932c-.1-.647-.115-.822-.115-.868 0-.677-.364-.75-.52-.75a.441.441 0 00-.323.119l-.115.097-.002-.001-.059.008-.625-.262a4.53 4.53 0 00-1.755-.306zM75.758 40.519a6.628 6.628 0 01-4.833-1.814 6.387 6.387 0 01-1.854-4.755 7.024 7.024 0 01.486-2.527 6.095 6.095 0 011.316-2.1 6.199 6.199 0 012.204-1.413 7.419 7.419 0 012.723-.522 6.6 6.6 0 014.753 1.792 6.127 6.127 0 011.86 4.589 6.655 6.655 0 01-1.872 4.853 6.461 6.461 0 01-4.783 1.897zm-.541-12.235a4.065 4.065 0 00-3.219 1.362 5.451 5.451 0 00-1.198 3.703 6.813 6.813 0 001.545 4.517 4.7 4.7 0 003.76 1.82 4.326 4.326 0 003.354-1.478 5.495 5.495 0 001.327-3.776 6.334 6.334 0 00-1.6-4.398 5.172 5.172 0 00-3.969-1.75z" />
  <path d="M75.8 27.541a6.426 6.426 0 014.647 1.75 5.956 5.956 0 011.813 4.478 6.476 6.476 0 01-1.828 4.745 6.288 6.288 0 01-4.674 1.852 6.452 6.452 0 01-4.725-1.77 6.215 6.215 0 01-1.808-4.646 6.836 6.836 0 01.476-2.471 5.913 5.913 0 011.282-2.048 6.044 6.044 0 012.15-1.378 7.237 7.237 0 012.667-.512m.305 12.299a4.454 4.454 0 003.468-1.53 5.619 5.619 0 001.367-3.878 6.454 6.454 0 00-1.64-4.502 5.294 5.294 0 00-4.083-1.8 4.2 4.2 0 00-3.335 1.415 5.573 5.573 0 00-1.236 3.804 6.924 6.924 0 001.582 4.615 4.882 4.882 0 003.877 1.876M75.8 27.234a7.57 7.57 0 00-2.779.533 6.356 6.356 0 00-2.259 1.45 6.246 6.246 0 00-1.348 2.15 7.171 7.171 0 00-.496 2.583 6.539 6.539 0 001.9 4.865 6.778 6.778 0 004.94 1.858 6.611 6.611 0 004.893-1.943 6.805 6.805 0 001.917-4.96 6.275 6.275 0 00-1.908-4.7 6.75 6.75 0 00-4.86-1.836zm.305 12.298a4.554 4.554 0 01-3.642-1.766 6.656 6.656 0 01-1.51-4.417 5.305 5.305 0 011.16-3.602 3.87 3.87 0 013.104-1.309 4.96 4.96 0 013.856 1.7 6.183 6.183 0 011.56 4.294 5.343 5.343 0 01-1.29 3.674 4.124 4.124 0 01-3.238 1.426zM90.363 40.519a6.433 6.433 0 01-2.833-.61 4.158 4.158 0 01-1.868-1.683A6.557 6.557 0 0185 35.084v-4.593l-.017-.512a2.274 2.274 0 00-.239-1.246 1.397 1.397 0 00-.968-.422c-.328-.053-.377-.236-.377-.341 0-.11.048-.365.498-.365.151 0 .361.006.632.02.274.017.474.027.597.027l.694-.01h.691c.072 0 .234-.013.495-.036a7.05 7.05 0 01.474-.027c.266 0 .362.153.362.295 0 .134-.073.306-.416.371a.82.82 0 00-.59.374 2.642 2.642 0 00-.162 1.147l.019.592v4.558a5.676 5.676 0 00.694 3.235 3.824 3.824 0 003.308 1.348 4.008 4.008 0 003.109-1.13 5.02 5.02 0 001.03-3.453v-4.682a3.03 3.03 0 00-.304-1.558 1.228 1.228 0 00-.987-.51c-.35-.04-.401-.234-.401-.347a.308.308 0 01.316-.34 5.34 5.34 0 01.62.074 5.086 5.086 0 00.795.052c.665 0 1.078-.008 1.227-.025.222-.02.357-.029.413-.029a.3.3 0 01.328.312c0 .109-.05.258-.286.356a1.06 1.06 0 00-.63.549 4.482 4.482 0 00-.153 1.479v4.475a6.478 6.478 0 01-1.014 3.89 4.443 4.443 0 01-1.85 1.395 6.413 6.413 0 01-2.545.512z" />
  <path d="M93.458 27.633h.017a5.308 5.308 0 01.58.072 5.289 5.289 0 00.818.054c.677 0 1.088-.009 1.245-.026.21-.019.341-.028.395-.028.117 0 .175.054.175.158 0 .09-.064.16-.191.214a1.2 1.2 0 00-.715.634 4.82 4.82 0 00-.163 1.535v4.476a6.302 6.302 0 01-.984 3.799 4.266 4.266 0 01-1.787 1.345 6.58 6.58 0 01-5.25-.096 3.991 3.991 0 01-1.802-1.619 6.386 6.386 0 01-.642-3.066V30.49l-.017-.517a2.375 2.375 0 00-.269-1.332 1.53 1.53 0 00-1.071-.484c-.162-.026-.244-.087-.244-.188 0-.14.115-.211.344-.211q.223 0 .625.02c.276.016.48.027.604.027l.697-.01h.688c.074 0 .24-.014.508-.037.223-.017.373-.026.46-.026.137 0 .209.047.209.141 0 .11-.098.184-.291.22a.967.967 0 00-.698.455 2.877 2.877 0 00-.18 1.217l.02.597v4.553a5.78 5.78 0 00.724 3.326 3.948 3.948 0 003.431 1.41 4.136 4.136 0 003.224-1.18 5.136 5.136 0 001.07-3.556v-4.682a3.156 3.156 0 00-.328-1.64 1.368 1.368 0 00-1.102-.582c-.175-.019-.262-.082-.262-.193 0-.124.056-.186.162-.186m0-.308a.461.461 0 00-.47.494c0 .103.039.445.536.5a1.074 1.074 0 01.876.44 2.803 2.803 0 01.281 1.475v4.682a4.878 4.878 0 01-.99 3.35 3.866 3.866 0 01-2.997 1.079 3.68 3.68 0 01-3.181-1.284 5.539 5.539 0 01-.667-3.145v-4.553l-.019-.607a2.492 2.492 0 01.145-1.064.687.687 0 01.493-.298c.477-.09.53-.393.53-.52a.458.458 0 00-.516-.448c-.092 0-.25.008-.484.027a8.193 8.193 0 01-.484.035h-.688l-.701.01c-.117 0-.313-.01-.58-.027a14.04 14.04 0 00-.645-.02c-.62 0-.652.432-.652.519 0 .096.037.417.503.492.563.078.784.239.87.36a2.034 2.034 0 01.211 1.152l.018.527v4.584a6.712 6.712 0 00.68 3.214 4.313 4.313 0 001.936 1.748 6.887 6.887 0 005.506.101 4.588 4.588 0 001.913-1.444 6.624 6.624 0 001.044-3.982v-4.476a4.345 4.345 0 01.142-1.422.904.904 0 01.545-.463.533.533 0 00.382-.498.453.453 0 00-.482-.465 6.19 6.19 0 00-.423.029c-.105.011-.395.025-1.217.025a5.026 5.026 0 01-.77-.05 5.558 5.558 0 00-.613-.076h-.032zM105.619 40.412a4.177 4.177 0 01-.47-.055 6.723 6.723 0 00-.793-.027l-.663-.01-.701.01a5.469 5.469 0 00-.628.027c-.358.036-.563.055-.626.055-.396 0-.427-.268-.427-.35 0-.127.076-.287.436-.327a1.34 1.34 0 00.844-.333 1.53 1.53 0 00.207-.955v-8.978l-.011-.226c0-.258-.046-.314-.048-.315s-.061-.049-.332-.049h-2.398a1.435 1.435 0 00-.96.258 2.004 2.004 0 00-.463 1.027c-.071.307-.201.462-.386.462-.088-.003-.325-.043-.325-.397a3.892 3.892 0 01.113-.728 5.293 5.293 0 00.135-1.04 1.098 1.098 0 01.124-.635.6.6 0 01.527-.196h9.736c.493 0 .64.082.711.154.076.08.148.227.148.75a4.861 4.861 0 00.043.75c.034.212.05.364.055.456.015.377-.223.442-.326.453h-.004c-.13 0-.313-.056-.38-.405-.086-.483-.22-.67-.318-.743a1.645 1.645 0 00-.932-.166h-2.54c-.327 0-.39.062-.39.063-.004.003-.062.068-.062.429v8.876l.007.35a1.096 1.096 0 001.058 1.112c.366.06.443.225.443.353 0 .169-.106.35-.404.35z" />
  <path d="M108.51 27.784a1.01 1.01 0 01.603.11 1.152 1.152 0 01.103.64 5.022 5.022 0 00.045.776c.032.203.048.35.053.438.007.183-.055.278-.189.292h-.008c-.102 0-.173-.094-.21-.281a1.317 1.317 0 00-.377-.837 1.857 1.857 0 00-1.023-.196h-2.54a.754.754 0 00-.502.11.867.867 0 00-.104.534v8.877l.007.352a1.252 1.252 0 001.185 1.262c.21.034.316.102.316.201 0 .13-.084.196-.25.196a3.826 3.826 0 01-.446-.054 6.465 6.465 0 00-.817-.028l-.662-.008-.704.008a5.673 5.673 0 00-.644.028c-.346.035-.547.054-.607.054-.182 0-.274-.066-.274-.196 0-.094.1-.153.299-.175a1.463 1.463 0 00.944-.386 1.718 1.718 0 00.244-1.055V29.47l-.012-.234a.633.633 0 00-.092-.417.705.705 0 00-.441-.092h-2.398a1.57 1.57 0 00-1.062.296 2.103 2.103 0 00-.511 1.108c-.053.228-.132.342-.235.342h-.01c-.105-.005-.162-.085-.162-.243a3.808 3.808 0 01.11-.695 5.481 5.481 0 00.137-1.073 1.017 1.017 0 01.095-.544c.06-.088.195-.133.403-.133h9.736m0-.307h-9.736a.745.745 0 00-.656.265 1.206 1.206 0 00-.15.72 5.16 5.16 0 01-.13 1.01 3.96 3.96 0 00-.116.757.489.489 0 00.454.55h.002c.207 0 .446-.101.558-.579a1.78 1.78 0 01.416-.948 1.319 1.319 0 01.857-.219h2.398a1.138 1.138 0 01.213.016 1.038 1.038 0 01.013.186l.012.25v8.961a1.4 1.4 0 01-.175.86 1.173 1.173 0 01-.746.276c-.51.058-.566.355-.566.48a.51.51 0 00.58.504c.064 0 .275-.02.639-.056a5.351 5.351 0 01.613-.026l.708-.009.654.009c.16 0 .64 0 .766.023a3.785 3.785 0 00.501.059.503.503 0 00.557-.504c0-.153-.074-.423-.573-.505-.616-.108-.903-.408-.928-.972l-.007-.344v-8.87a1.362 1.362 0 01.026-.314 1.126 1.126 0 01.272-.024h2.541a1.541 1.541 0 01.84.135c.05.038.174.174.258.645.093.483.39.535.512.535a.53.53 0 00.504-.611 5.027 5.027 0 00-.057-.475 4.576 4.576 0 01-.04-.728c0-.472-.053-.71-.188-.852a1.138 1.138 0 00-.826-.205zM119.785 40.413a.36.36 0 01-.271-.1.31.31 0 01-.077-.241c.003-.125.082-.292.436-.348.55-.092.818-.549.818-1.394l.008-.36v-3.32a.973.973 0 00-.038-.388v.001a2.052 2.052 0 00-.432-.03h-5.325c-.45 0-.535.062-.544.07-.005.004-.072.062-.072.412v3.319a2.076 2.076 0 00.264 1.223 1.46 1.46 0 001.01.414c.384.042.473.227.48.375a.301.301 0 01-.077.232.44.44 0 01-.34.114q-.12 0-.46-.04a9.064 9.064 0 00-1.065-.043l-.766-.007-.586.02c-.155 0-.34.01-.563.03-.322.027-.517.04-.583.04-.281 0-.382-.166-.382-.321 0-.106.046-.292.357-.36l.451-.109a.608.608 0 00.43-.492 7.6 7.6 0 00.139-1.735V29.6a1.639 1.639 0 00-.264-1.045 1.568 1.568 0 00-.97-.417c-.342-.046-.394-.237-.394-.346a.32.32 0 01.362-.33c.151.006.335.025.586.055a14.653 14.653 0 001.638.08 9.16 9.16 0 001.184-.07 3.026 3.026 0 01.4-.039c.387 0 .416.26.416.34 0 .12-.063.277-.362.352a1.27 1.27 0 00-.725.38 1.538 1.538 0 00-.18.869v3.24c0 .421.053.5.059.507a1.361 1.361 0 00.558.056h5.335a.963.963 0 00.42-.047c.012-.01.04-.063.04-.201v-3.089a2.541 2.541 0 00-.217-1.245 1.165 1.165 0 00-.786-.47c-.346-.07-.386-.262-.379-.37.004-.068.042-.294.378-.294.13 0 .341.016.631.046a11.832 11.832 0 001.25.063 11.092 11.092 0 001.335-.054 3.065 3.065 0 01.355-.038.326.326 0 01.372.331c0 .08-.033.275-.342.337l-.364.08a.574.574 0 00-.374.33 1.507 1.507 0 00-.17.724v8.743a2.178 2.178 0 00.245 1.249 1.263 1.263 0 00.932.388c.341.045.42.2.425.323a.331.331 0 01-.08.26.42.42 0 01-.325.115 3.185 3.185 0 01-.496-.05 7.114 7.114 0 00-.882-.032l-.666-.01-.675.016c-.11 0-.25.011-.422.029-.385.032-.597.047-.642.047l-.018-.154z" />
  <path d="M111.33 27.615h.028c.116.005.295.024.54.054a14.821 14.821 0 001.657.081 9.235 9.235 0 001.205-.073 2.88 2.88 0 01.38-.036c.172 0 .262.063.262.186 0 .094-.084.162-.246.203a1.392 1.392 0 00-.813.44 1.663 1.663 0 00-.21.958v3.24c0 .346.034.55.107.617.067.068.29.099.664.099h5.336a1.085 1.085 0 00.505-.073c.072-.048.108-.154.108-.328v-3.089a2.669 2.669 0 00-.24-1.326 1.306 1.306 0 00-.881-.538c-.179-.037-.267-.107-.26-.211.005-.099.081-.15.224-.15.126 0 .333.015.616.045a11.896 11.896 0 001.265.064 11.272 11.272 0 001.357-.055 2.929 2.929 0 01.333-.037c.146 0 .219.06.219.177 0 .092-.073.156-.219.186l-.368.081a.71.71 0 00-.474.404 1.651 1.651 0 00-.189.8v8.743a2.383 2.383 0 00.274 1.34 1.396 1.396 0 001.04.45c.186.025.283.084.288.178.012.142-.071.213-.252.213a3.076 3.076 0 01-.472-.047 7.072 7.072 0 00-.906-.035l-.664-.008-.68.015c-.112 0-.256.01-.434.028-.375.031-.584.047-.627.047h-.018c-.137 0-.202-.057-.195-.177.003-.106.105-.174.307-.205.631-.106.947-.623.947-1.546l.009-.356v-3.323c0-.283-.024-.45-.083-.496a1.078 1.078 0 00-.542-.075h-5.324a1.181 1.181 0 00-.643.106c-.085.067-.127.244-.127.529v3.318a2.19 2.19 0 00.298 1.32 1.594 1.594 0 001.113.471c.222.025.337.1.343.23.01.124-.08.185-.263.185-.076 0-.223-.014-.441-.04a8.68 8.68 0 00-1.084-.043l-.764-.007-.593.02c-.154 0-.343.01-.572.03-.314.026-.505.04-.57.04-.15 0-.227-.056-.227-.168 0-.106.08-.176.236-.21l.454-.11a.754.754 0 00.543-.598 7.608 7.608 0 00.144-1.777v-7.777a1.769 1.769 0 00-.3-1.144 1.709 1.709 0 00-1.065-.47c-.175-.024-.263-.087-.263-.194 0-.115.07-.176.207-.176m0-.307a.473.473 0 00-.515.483c0 .1.039.433.53.498a1.448 1.448 0 01.872.365 1.508 1.508 0 01.226.945v7.777a7.047 7.047 0 01-.133 1.695c-.095.33-.254.367-.314.38l-.458.11a.522.522 0 00-.472.51.48.48 0 00.536.475c.067 0 .266-.013.594-.04.22-.02.4-.029.547-.029l.603-.021.751.007a7.82 7.82 0 011.038.04c.248.03.408.043.49.043a.59.59 0 00.452-.164.46.46 0 00.118-.35c-.006-.13-.079-.455-.617-.514a1.343 1.343 0 01-.904-.355 1.864 1.864 0 01-.233-1.13v-3.318a.966.966 0 01.032-.306l.01.001a3.894 3.894 0 01.421-.023h5.324a2.648 2.648 0 01.307.014 2.351 2.351 0 01.01.25v3.323l-.008.349c0 1.134-.502 1.218-.691 1.25-.478.074-.559.344-.564.498a.456.456 0 00.121.348.502.502 0 00.382.147c.063 0 .28-.016.67-.048.17-.017.305-.027.408-.027l.688-.016.653.009a7.106 7.106 0 01.86.03 3.385 3.385 0 00.522.052.567.567 0 00.438-.166.483.483 0 00.12-.382c-.006-.11-.073-.392-.554-.455a1.161 1.161 0 01-.83-.326 2.039 2.039 0 01-.216-1.16v-8.743a1.353 1.353 0 01.151-.653c.083-.148.17-.232.258-.248l.38-.084a.496.496 0 00.46-.486.479.479 0 00-.526-.484 3.193 3.193 0 00-.377.04 11.083 11.083 0 01-1.313.052 11.619 11.619 0 01-1.233-.063 6.976 6.976 0 00-.649-.047.474.474 0 00-.53.442c-.007.095.01.427.505.528a1.02 1.02 0 01.68.395 2.318 2.318 0 01.195 1.168v3.09a.623.623 0 01-.004.076 2.138 2.138 0 01-.3.017h-5.337a2.469 2.469 0 01-.442-.028 2.914 2.914 0 01-.02-.382v-3.24a1.351 1.351 0 01.149-.775 1.09 1.09 0 01.64-.324c.431-.108.478-.387.478-.501a.499.499 0 00-.57-.493 3.175 3.175 0 00-.423.04 8.961 8.961 0 01-1.16.069 14.582 14.582 0 01-1.623-.08 7.958 7.958 0 00-.563-.054h-.006l-.034-.001zM134.087 40.382l-.871-.05c-.284-.014-.615-.021-.99-.021-.167 0-.297.005-.39.015-.316.033-.493.048-.523.048-.293 0-.397-.166-.397-.32a.343.343 0 01.263-.34l.338-.101c.039-.012.16-.076.409-.388a4.038 4.038 0 00.488-.77l.261-.592 4.647-10.33c.04-.088.159-.362.405-.362.167 0 .297.123.386.364l4.086 10.447a4.44 4.44 0 00.671 1.31 2.126 2.126 0 001.06.38c.373.07.403.288.4.38-.006.09-.056.295-.41.295-.056 0-.17-.007-.351-.017-.306-.03-.848-.045-1.664-.045a12.888 12.888 0 00-1.55.05 1.543 1.543 0 01-.305.04c-.287 0-.389-.174-.389-.337 0-.082.035-.277.35-.338l.278-.063c.157-.031.333-.111.333-.467a7.001 7.001 0 00-.542-1.856l-.456-1.195a1.546 1.546 0 00-.245-.512 1.73 1.73 0 00-.522-.043h-3.274a1.681 1.681 0 00-.748.084c-.03.018-.143.124-.376.657l-.595 1.334a3.775 3.775 0 00-.39 1.295.65.65 0 00.161.501 1.757 1.757 0 00.77.291c.315.063.392.227.4.353l.005.067-.077.139a.44.44 0 01-.333.107zm1.382-6.346a1.172 1.172 0 00-.104.271c0 .07.165.081.263.081l.251.009h2.726c.192 0 .296-.036.296-.07a.663.663 0 00-.037-.165l-.044-.168-1.492-3.755a.8.8 0 00-.076-.16l-1.783 3.957z" />
  <path d="M137.727 27.325c.095 0 .177.088.24.263l3.895 9.961.195.49a4.421 4.421 0 00.708 1.363 2.338 2.338 0 001.138.422c.186.035.278.111.273.22-.006.101-.092.15-.256.15-.053 0-.166-.007-.341-.018-.316-.03-.87-.045-1.673-.045a13.652 13.652 0 00-1.576.052 1.506 1.506 0 01-.28.039c-.156 0-.236-.063-.236-.184 0-.096.078-.158.228-.188l.28-.062a.547.547 0 00.454-.618 7.008 7.008 0 00-.552-1.91l-.457-1.196a1.641 1.641 0 00-.293-.578 1.492 1.492 0 00-.618-.075h-3.273a1.893 1.893 0 00-.833.108 1.943 1.943 0 00-.432.725l-.595 1.333a3.886 3.886 0 00-.403 1.357.79.79 0 00.212.616 1.954 1.954 0 00.84.326c.18.037.273.108.28.212.005.1-.079.151-.252.151-.068 0-.168-.005-.307-.01l-.868-.05q-.432-.021-.998-.022a4.065 4.065 0 00-.408.016c-.305.031-.477.049-.506.049-.16 0-.243-.057-.243-.169a.19.19 0 01.154-.192l.337-.1a1.3 1.3 0 00.486-.44 4.204 4.204 0 00.506-.8l.262-.597 4.648-10.327c.08-.181.166-.272.264-.272m-1.854 7.225h2.732c.3 0 .45-.074.45-.224a.819.819 0 00-.044-.21l-.043-.16-1.424-3.583-.072-.19c-.072-.192-.15-.292-.236-.3h-.007c-.04 0-.085.06-.136.174l-1.765 3.915a1.119 1.119 0 00-.116.334c0 .16.137.236.416.236l.245.008m1.854-7.532c-.23 0-.413.153-.546.455l-4.646 10.325-.263.6a3.862 3.862 0 01-.466.731c-.235.295-.334.336-.338.338l-.332.1a.495.495 0 00-.374.486.487.487 0 00.55.476c.032 0 .214-.017.539-.05.09-.01.215-.014.376-.014.371 0 .7.007.983.02l.865.05.111.005c.091.004.162.006.214.006a.58.58 0 00.444-.155.425.425 0 00.115-.319c-.01-.15-.092-.41-.526-.497a1.622 1.622 0 01-.698-.256.553.553 0 01-.107-.385 3.49 3.49 0 01.377-1.234l.594-1.33a1.939 1.939 0 01.326-.599 2.234 2.234 0 01.658-.052h3.273a2.39 2.39 0 01.435.026 2.603 2.603 0 01.188.426l.458 1.198a6.486 6.486 0 01.531 1.8c0 .255-.093.295-.206.317l-.287.064a.5.5 0 00-.468.488.49.49 0 00.543.491 1.756 1.756 0 00.343-.045 13.197 13.197 0 011.513-.045c.808 0 1.345.014 1.642.043.209.013.318.02.372.02.514 0 .559-.368.563-.441.004-.104-.019-.445-.523-.54a2.007 2.007 0 01-.983-.341 3.99 3.99 0 01-.634-1.254l-.195-.49-3.894-9.96c-.138-.378-.363-.458-.527-.458zm-2.175 7.213c.013-.032.031-.076.056-.132l1.64-3.638.01.023 1.424 3.585.032.127.012.04a1.02 1.02 0 01-.121.007h-2.726l-.24-.009c-.035 0-.064-.001-.087-.003zM150.41 40.519a6.444 6.444 0 01-2.835-.61 4.124 4.124 0 01-1.866-1.683 6.547 6.547 0 01-.66-3.142v-4.593l-.019-.512a2.264 2.264 0 00-.239-1.245 1.402 1.402 0 00-.967-.423c-.329-.053-.377-.236-.377-.341 0-.11.048-.365.496-.365.153 0 .365.006.634.02.272.017.472.027.596.027l.696-.01h.69c.07 0 .232-.013.491-.036.231-.018.39-.027.477-.027.264 0 .358.153.358.295 0 .134-.071.307-.413.371a.828.828 0 00-.593.375 2.707 2.707 0 00-.16 1.146l.018.592v4.558a5.672 5.672 0 00.697 3.235 3.826 3.826 0 003.306 1.348 3.997 3.997 0 003.107-1.13 5.034 5.034 0 001.032-3.453v-4.682a3.07 3.07 0 00-.302-1.56 1.235 1.235 0 00-.989-.509c-.352-.039-.403-.233-.403-.346a.305.305 0 01.315-.34 5.395 5.395 0 01.624.074 5.06 5.06 0 00.792.052c.831 0 1.127-.013 1.229-.025.22-.02.36-.029.413-.029a.298.298 0 01.325.312.383.383 0 01-.284.356 1.028 1.028 0 00-.628.548 4.371 4.371 0 00-.155 1.48v4.475a6.451 6.451 0 01-1.015 3.89 4.408 4.408 0 01-1.85 1.395 6.397 6.397 0 01-2.542.512z" />
  <path d="M153.5 27.633h.017a5.315 5.315 0 01.582.072 5.28 5.28 0 00.817.054c.673 0 1.092-.009 1.246-.026.21-.019.344-.028.396-.028.116 0 .172.054.172.158 0 .09-.063.16-.19.214a1.184 1.184 0 00-.713.634 4.728 4.728 0 00-.165 1.535v4.476a6.278 6.278 0 01-.984 3.799 4.248 4.248 0 01-1.787 1.345 6.574 6.574 0 01-5.248-.096 3.965 3.965 0 01-1.8-1.619 6.376 6.376 0 01-.642-3.066V30.49l-.017-.517a2.36 2.36 0 00-.27-1.332 1.533 1.533 0 00-1.068-.484c-.163-.026-.245-.087-.245-.188 0-.14.113-.211.342-.211.151 0 .36.006.626.02.275.016.478.027.604.027l.698-.01h.689c.071 0 .238-.014.503-.037q.336-.026.464-.026c.137 0 .204.047.204.141 0 .11-.093.184-.288.22a.975.975 0 00-.7.455 2.949 2.949 0 00-.176 1.217l.017.597v4.553a5.786 5.786 0 00.726 3.326 3.952 3.952 0 003.43 1.41 4.13 4.13 0 003.222-1.18 5.158 5.158 0 001.07-3.556v-4.682a3.199 3.199 0 00-.324-1.64 1.387 1.387 0 00-1.106-.582c-.175-.019-.263-.082-.263-.193 0-.124.053-.186.16-.186m0-.308a.456.456 0 00-.468.494c0 .103.039.445.538.5a1.096 1.096 0 01.881.443 2.851 2.851 0 01.275 1.472v4.682a4.894 4.894 0 01-.991 3.35 3.857 3.857 0 01-2.993 1.079 3.684 3.684 0 01-3.182-1.284 5.542 5.542 0 01-.667-3.145v-4.553l-.018-.606a2.56 2.56 0 01.142-1.069.696.696 0 01.495-.294c.475-.089.528-.393.528-.52a.456.456 0 00-.512-.448q-.134 0-.487.027a8.219 8.219 0 01-.48.035h-.689l-.702.01c-.118 0-.315-.01-.58-.027a13.9 13.9 0 00-.646-.02c-.618 0-.65.432-.65.519 0 .097.037.417.504.492.56.078.781.239.868.36a2.03 2.03 0 01.211 1.152l.018.527v4.584a6.703 6.703 0 00.68 3.214 4.287 4.287 0 001.934 1.748 6.88 6.88 0 005.504.101 4.568 4.568 0 001.914-1.444 6.604 6.604 0 001.044-3.982v-4.476a4.294 4.294 0 01.142-1.42.89.89 0 01.544-.464.533.533 0 00.381-.499.452.452 0 00-.48-.465c-.055 0-.198.008-.423.029-.104.011-.393.025-1.218.025a4.996 4.996 0 01-.769-.05 5.555 5.555 0 00-.615-.076h-.032zM162.224 40.519a6.84 6.84 0 01-1.568-.202 3.967 3.967 0 01-1.277-.486.721.721 0 01-.271-.293 4.101 4.101 0 01-.172-.66c-.01-.043-.227-.811-.227-.811a5.075 5.075 0 01-.238-1.2c0-.386.246-.416.321-.416.267.011.384.302.46.554a3.362 3.362 0 001.312 1.805 3.638 3.638 0 002.182.732 2.995 2.995 0 002.007-.698 2.077 2.077 0 00.806-1.663 1.988 1.988 0 00-.74-1.577 8.408 8.408 0 00-2.296-.978 7.6 7.6 0 01-2.902-1.535 3.016 3.016 0 01-.88-2.241 3.133 3.133 0 011.147-2.502 4.937 4.937 0 014.603-.666l.622.262a.27.27 0 00.105.024.204.204 0 00.12-.057l.121-.106a.238.238 0 01.201-.072h.001c.181 0 .38.104.38.596a8.8 8.8 0 00.116.891l.145.934a3.718 3.718 0 01.046.39c0 .404-.265.435-.346.435-.23 0-.356-.287-.44-.538a2.934 2.934 0 00-1.259-1.54 3.929 3.929 0 00-2.144-.608 2.223 2.223 0 00-1.52.538 1.662 1.662 0 00-.603 1.318 1.944 1.944 0 00.392 1.222 2.292 2.292 0 00.754.641c.28.139.977.394 2.134.78 2.289.748 3.449 2.003 3.449 3.733a3.668 3.668 0 01-1.284 2.88 4.778 4.778 0 01-3.257 1.114z" />
  <path d="M162.793 27.541a4.217 4.217 0 011.638.282l.622.262a.425.425 0 00.165.037.344.344 0 00.217-.092l.125-.109a.123.123 0 01.1-.034h.013c.144 0 .214.15.214.442q0 .154.117.915l.146.933a3.663 3.663 0 01.045.368q0 .281-.193.281c-.1 0-.198-.146-.295-.434a3.061 3.061 0 00-1.32-1.62 4.065 4.065 0 00-2.227-.633 2.363 2.363 0 00-1.623.576 1.82 1.82 0 00-.654 1.434 2.097 2.097 0 00.423 1.314 2.421 2.421 0 00.807.687q.438.216 2.154.788 3.348 1.093 3.344 3.587a3.506 3.506 0 01-1.232 2.765 4.602 4.602 0 01-3.155 1.076 6.703 6.703 0 01-1.532-.198 3.803 3.803 0 01-1.226-.464.58.58 0 01-.218-.23 3.971 3.971 0 01-.162-.627c-.01-.048-.088-.323-.229-.822a5.079 5.079 0 01-.232-1.158c0-.172.054-.263.168-.263l.016.001c.11.005.208.153.295.444a3.508 3.508 0 001.369 1.885 3.77 3.77 0 002.273.762 3.133 3.133 0 002.107-.734 2.244 2.244 0 00.86-1.78 2.155 2.155 0 00-.794-1.695 9.053 9.053 0 00-2.348-1.006 7.527 7.527 0 01-2.84-1.5 2.86 2.86 0 01-.837-2.13 2.973 2.973 0 011.093-2.386 4.189 4.189 0 012.806-.924m0-.307a4.504 4.504 0 00-3.005.997 3.278 3.278 0 00-1.202 2.62 3.163 3.163 0 00.929 2.35 7.735 7.735 0 002.958 1.571 8.274 8.274 0 012.245.948 1.844 1.844 0 01.687 1.461 1.933 1.933 0 01-.75 1.546 2.846 2.846 0 01-1.909.661 3.485 3.485 0 01-2.091-.702 3.214 3.214 0 01-1.256-1.722c-.053-.179-.193-.648-.576-.666h-.002a.496.496 0 00-.504.57 5.196 5.196 0 00.244 1.24l.08.283c.086.305.135.479.145.521a3.334 3.334 0 00.182.69.87.87 0 00.329.359 4.04 4.04 0 001.324.506 7.03 7.03 0 001.603.206 4.927 4.927 0 003.358-1.152 3.813 3.813 0 001.337-2.996c0-1.803-1.197-3.108-3.557-3.88-1.128-.376-1.84-.635-2.112-.77a2.129 2.129 0 01-.702-.602 1.781 1.781 0 01-.358-1.124 1.515 1.515 0 01.55-1.202 2.05 2.05 0 011.42-.5 3.779 3.779 0 012.061.585 2.739 2.739 0 011.194 1.457c.066.194.218.645.587.645.23 0 .5-.155.5-.589a3.851 3.851 0 00-.048-.414l-.146-.935a8.619 8.619 0 01-.113-.867c0-.677-.365-.75-.522-.75a.441.441 0 00-.328.122l-.112.097a.042.042 0 01-.028.013.1.1 0 01-.036-.01l-.618-.261a4.536 4.536 0 00-1.758-.306zM175.576 40.412a4.12 4.12 0 01-.47-.055 6.625 6.625 0 00-.79-.027l-.662-.01-.706.01a5.447 5.447 0 00-.626.027 10.82 10.82 0 01-.627.055c-.391 0-.421-.268-.421-.35 0-.127.074-.287.43-.327a1.307 1.307 0 00.84-.331 1.488 1.488 0 00.212-.957v-8.978l-.01-.227c0-.259-.049-.313-.05-.313-.002-.002-.061-.05-.329-.05h-2.398a1.434 1.434 0 00-.96.258 2.004 2.004 0 00-.465 1.028c-.07.306-.198.461-.383.461-.088-.003-.325-.042-.325-.397a4.103 4.103 0 01.11-.726 5.204 5.204 0 00.134-1.042 1.091 1.091 0 01.126-.637.606.606 0 01.526-.194h9.737c.494 0 .639.083.71.156.105.107.148.323.148.748a4.255 4.255 0 00.044.745c.03.217.05.367.057.458.015.39-.246.447-.327.456h-.003c-.153 0-.318-.072-.38-.406a1.154 1.154 0 00-.323-.742 1.646 1.646 0 00-.927-.166h-2.542c-.326 0-.393.062-.394.065s-.06.069-.06.427v8.876l.01.348a1.105 1.105 0 001.056 1.114c.368.06.445.225.445.353 0 .169-.107.35-.407.35z" />
  <path d="M178.47 27.784a1.002 1.002 0 01.6.11 1.124 1.124 0 01.104.64 4.386 4.386 0 00.047.776c.028.203.047.35.054.438.006.183-.06.278-.19.292h-.008c-.106 0-.173-.094-.209-.281a1.33 1.33 0 00-.381-.837 1.837 1.837 0 00-1.019-.196h-2.542a.767.767 0 00-.504.11.883.883 0 00-.102.534v8.877l.009.352a1.252 1.252 0 001.183 1.262c.21.034.318.102.318.201 0 .13-.085.196-.254.196a3.765 3.765 0 01-.446-.054 6.386 6.386 0 00-.814-.028l-.66-.008-.71.008a5.64 5.64 0 00-.643.028c-.345.035-.545.054-.609.054-.18 0-.267-.066-.267-.196 0-.094.095-.153.295-.175a1.435 1.435 0 00.94-.386 1.675 1.675 0 00.247-1.055V29.47l-.01-.234a.62.62 0 00-.096-.417.688.688 0 00-.435-.092h-2.399a1.568 1.568 0 00-1.064.296 2.116 2.116 0 00-.51 1.108c-.052.228-.13.342-.234.342h-.009c-.11-.005-.163-.085-.163-.243a4.092 4.092 0 01.108-.695 5.338 5.338 0 00.137-1.073 1.007 1.007 0 01.095-.544c.06-.088.196-.133.403-.133h9.737m0-.307h-9.737a.745.745 0 00-.656.265 1.198 1.198 0 00-.15.72 5.065 5.065 0 01-.13 1.008 4.164 4.164 0 00-.114.759.489.489 0 00.456.55h.002c.205 0 .445-.101.555-.58a1.8 1.8 0 01.415-.947 1.32 1.32 0 01.86-.219h2.398a1.11 1.11 0 01.21.016.993.993 0 01.013.186l.01.248v8.963a1.367 1.367 0 01-.173.857c-.064.078-.243.213-.746.279-.507.057-.562.355-.562.48a.506.506 0 00.574.504c.068 0 .277-.02.64-.056a5.335 5.335 0 01.612-.026l.713-.009.654.009c.16 0 .639 0 .762.023a3.738 3.738 0 00.501.059.505.505 0 00.561-.504c0-.153-.074-.422-.575-.505-.616-.109-.903-.408-.926-.97l-.009-.348V29.37a1.396 1.396 0 01.026-.312 1.126 1.126 0 01.273-.025h2.542a1.53 1.53 0 01.835.136c.05.037.178.175.263.645.088.464.358.534.51.534a.531.531 0 00.506-.611 9.014 9.014 0 00-.057-.469 4.201 4.201 0 01-.044-.734c0-.476-.054-.716-.192-.856a1.13 1.13 0 00-.82-.201zM191.147 40.465a2.684 2.684 0 01-1.55-.472 5.565 5.565 0 01-1.355-1.503l-2.379-3.637a.615.615 0 00-.577-.302h-1.199l-.161.031c.021.001.004.043.004.14v2.832l.007.36a4.638 4.638 0 00.072 1.034.855.855 0 00.314.427 2.176 2.176 0 001.12.359c.38.039.47.209.477.345a.278.278 0 01-.07.22.494.494 0 01-.385.121c-.084 0-.267-.014-.547-.042-.245-.026-.622-.04-1.135-.04l-.872-.008-.46.006c-.207 0-.45.018-.732.046a5.778 5.778 0 01-.502.038c-.353 0-.38-.258-.38-.338 0-.118.06-.27.35-.329a1.025 1.025 0 00.837-.566 5.976 5.976 0 00.212-1.992v-6.502l-.017-.939c0-.868-.28-1.335-.856-1.427l-.422-.064c-.37-.067-.423-.256-.423-.364 0-.102.045-.339.465-.339.047 0 .26.013.637.037.219.02.483.027.797.027.278 0 .747-.022 1.412-.064.488-.03.916-.045 1.283-.045a5.43 5.43 0 013.23.812 2.878 2.878 0 011.124 2.458 3.548 3.548 0 01-2.166 3.207l2.69 3.97c.739 1.082 1.417 1.65 2.018 1.69l.287.018a.326.326 0 01.237.099l.043.048.02.143c-.02.224-.288.326-.519.389a3.424 3.424 0 01-.93.116zm-6.44-12.03a1.005 1.005 0 00-.64.143.722.722 0 00-.144.523l.007.295v3.687c0 .347.058.424.068.437.008.008.083.064.42.064h1.025a2.443 2.443 0 001.76-.61 2.196 2.196 0 00.633-1.678 2.664 2.664 0 00-.873-2.049 3.221 3.221 0 00-2.257-.812z" />
  <path d="M185.113 27.669a5.256 5.256 0 013.139.782 2.72 2.72 0 011.06 2.333 3.45 3.45 0 01-2.237 3.15l2.498 3.681.29.432q1.155 1.695 2.136 1.758l.286.02c.11.004.161.048.156.126-.008.094-.14.177-.406.25a3.292 3.292 0 01-.888.11 2.529 2.529 0 01-1.463-.445 5.42 5.42 0 01-1.314-1.461l-2.25-3.438-.128-.198a.76.76 0 00-.706-.371h-1.199l-.203.036c-.073.042-.108.139-.108.288v2.832l.007.363a5.071 5.071 0 00.077 1.069 1.003 1.003 0 00.37.51 2.299 2.299 0 001.198.39c.22.023.332.09.339.202.012.121-.09.179-.302.179q-.123 0-.531-.042c-.248-.026-.63-.04-1.15-.04l-.87-.008-.465.006c-.209 0-.457.018-.745.046-.236.026-.399.038-.487.038-.153 0-.226-.061-.226-.186 0-.088.073-.146.226-.177a1.175 1.175 0 00.947-.656 5.995 5.995 0 00.226-2.053v-6.503l-.018-.94c0-.943-.326-1.47-.984-1.577l-.425-.064c-.19-.034-.291-.105-.291-.211 0-.124.104-.186.31-.186.047 0 .257.013.629.036.218.02.487.028.807.028.279 0 .75-.022 1.42-.064q.727-.044 1.275-.045m-.695 6.069h1.024a2.58 2.58 0 001.868-.654 2.356 2.356 0 00.68-1.788 2.805 2.805 0 00-.923-2.162 3.355 3.355 0 00-2.36-.853 1.17 1.17 0 00-.738.178.84.84 0 00-.2.642l.007.299v3.684a.856.856 0 00.111.541.812.812 0 00.531.113m.695-6.377c-.367 0-.79.015-1.293.046-.675.043-1.134.064-1.402.064-.32 0-.576-.009-.78-.027-.39-.025-.607-.038-.656-.038-.588 0-.618.411-.618.494 0 .125.053.425.544.514l.435.065c.308.05.722.237.722 1.273l.017.946v6.497a5.528 5.528 0 01-.2 1.93.881.881 0 01-.721.477c-.432.088-.478.364-.478.479a.481.481 0 00.534.493c.094 0 .269-.012.52-.04.307-.03.534-.043.712-.043l.47-.007.861.009c.504 0 .88.012 1.122.038.29.03.477.043.563.043a.671.671 0 00.5-.174.439.439 0 00.108-.343c-.01-.148-.102-.424-.613-.476a2.034 2.034 0 01-1.039-.325.708.708 0 01-.266-.357 4.688 4.688 0 01-.064-.982l-.007-.369V34.71l.03-.005h1.172a.45.45 0 01.442.22l.135.21 2.25 3.438a5.737 5.737 0 001.394 1.545 2.84 2.84 0 001.64.501 3.58 3.58 0 00.972-.122c.161-.045.596-.164.629-.518a.417.417 0 00-.1-.313.475.475 0 00-.348-.15l-.28-.018c-.545-.035-1.202-.596-1.903-1.624l-.289-.43-2.306-3.4a3.637 3.637 0 002.098-3.26 3.024 3.024 0 00-1.185-2.58 5.571 5.571 0 00-3.322-.843zM184.1 33.4c.006-.014-.016-.104-.016-.315V29.4l-.007-.307c0-.294.075-.385.098-.405a.914.914 0 01.532-.1 3.032 3.032 0 012.152.772 2.487 2.487 0 01.823 1.936 2.048 2.048 0 01-.585 1.566 2.294 2.294 0 01-1.655.569h-1.023a1.06 1.06 0 01-.319-.032zM195.962 40.382l-.869-.05q-.43-.021-.994-.021a3.652 3.652 0 00-.39.016c-.316.032-.487.047-.521.047-.294 0-.399-.166-.399-.32a.343.343 0 01.262-.34l.339-.101c.03-.01.156-.068.411-.388a3.997 3.997 0 00.488-.77l.261-.592 4.646-10.33c.04-.088.16-.362.404-.362.166 0 .297.122.39.362l3.89 9.96.195.488a3.976 3.976 0 00.668 1.31 2.1 2.1 0 001.061.381c.375.07.404.29.4.38-.007.092-.061.295-.409.295a7.68 7.68 0 01-.328-.015c-.33-.033-.871-.047-1.69-.047a12.844 12.844 0 00-1.547.05 1.58 1.58 0 01-.303.04c-.363 0-.39-.258-.39-.337 0-.102.044-.28.349-.34l.277-.06c.158-.032.334-.113.334-.468a6.91 6.91 0 00-.545-1.855l-.45-1.197a1.593 1.593 0 00-.248-.51 1.588 1.588 0 00-.524-.044h-3.272a1.672 1.672 0 00-.746.082c-.03.02-.144.126-.382.66l-.59 1.333a3.57 3.57 0 00-.39 1.295.645.645 0 00.161.5 1.722 1.722 0 00.767.292c.317.063.394.227.402.353l.005.066-.074.138a.44.44 0 01-.338.109zm1.384-6.346a1.173 1.173 0 00-.107.271c0 .07.165.081.263.081l.252.009h2.724c.217 0 .298-.043.298-.07a.607.607 0 00-.038-.163l-.045-.17-1.416-3.564-.073-.192a.847.847 0 00-.077-.16c-.007.012-1.781 3.958-1.781 3.958z" />
  <path d="M199.6 27.325c.097 0 .179.088.246.263l3.89 9.961.197.49a4.285 4.285 0 00.705 1.363 2.33 2.33 0 001.138.422c.19.035.28.111.275.22-.01.101-.094.15-.256.15-.055 0-.166-.007-.343-.018-.314-.03-.871-.045-1.675-.045a13.62 13.62 0 00-1.572.052 1.548 1.548 0 01-.278.039c-.16 0-.238-.063-.238-.184 0-.096.075-.158.226-.188l.281-.062a.55.55 0 00.455-.618 6.93 6.93 0 00-.556-1.91l-.449-1.196a1.64 1.64 0 00-.3-.578 1.465 1.465 0 00-.616-.075h-3.272a1.882 1.882 0 00-.833.108 2.007 2.007 0 00-.435.725l-.59 1.333a3.847 3.847 0 00-.403 1.357.778.778 0 00.214.616 1.925 1.925 0 00.834.326c.18.037.274.108.282.212.006.1-.079.151-.254.151-.068 0-.167-.005-.305-.01l-.866-.05c-.29-.014-.623-.022-1.003-.022-.174 0-.308.006-.407.016-.305.031-.472.049-.505.049-.16 0-.244-.057-.244-.169a.192.192 0 01.154-.192l.337-.101a1.3 1.3 0 00.488-.44 4.117 4.117 0 00.506-.8l.262-.596 4.646-10.327c.08-.182.165-.272.264-.272m-1.852 7.225h2.73c.299 0 .451-.074.451-.224a.769.769 0 00-.045-.21l-.043-.161-1.422-3.582-.07-.19c-.074-.192-.153-.292-.235-.3h-.007c-.042 0-.088.059-.14.174l-1.762 3.915a1.113 1.113 0 00-.12.334c0 .16.14.236.417.236l.246.008m1.852-7.532c-.229 0-.412.153-.545.455l-4.645 10.325-.263.6a3.829 3.829 0 01-.466.731c-.234.294-.336.336-.34.338l-.332.1a.496.496 0 00-.374.486.488.488 0 00.552.476c.033 0 .189-.014.472-.043l.065-.007a3.78 3.78 0 01.375-.014c.374 0 .702.007.988.02l.863.05.114.005c.089.004.157.006.21.006a.581.581 0 00.448-.158.422.422 0 00.111-.321c-.01-.146-.091-.404-.527-.492a1.587 1.587 0 01-.69-.253.541.541 0 01-.111-.388 3.447 3.447 0 01.376-1.233l.59-1.332a1.978 1.978 0 01.331-.599 2.292 2.292 0 01.656-.051h3.272a2.392 2.392 0 01.435.026 2.765 2.765 0 01.194.43l.449 1.192a6.411 6.411 0 01.535 1.803c0 .254-.094.293-.208.316l-.287.064a.498.498 0 00-.466.488.491.491 0 00.545.491 1.784 1.784 0 00.34-.044 13.113 13.113 0 011.51-.046c.811 0 1.35.014 1.644.044h.006l.054.003c.159.01.26.015.314.015.5 0 .556-.358.562-.43.006-.114-.018-.456-.525-.55a1.996 1.996 0 01-.98-.34 3.834 3.834 0 01-.632-1.253l-.2-.494-3.887-9.958c-.147-.379-.37-.458-.533-.458zm-2.174 7.213l.058-.13 1.64-3.642.008.022 1.423 3.587.032.128.012.04a1.013 1.013 0 01-.121.007h-2.724l-.241-.009c-.035 0-.064-.001-.087-.003zM208.028 40.413a.392.392 0 01-.25-.074.293.293 0 01-.109-.24c0-.117.06-.273.353-.36a1.228 1.228 0 00.753-.488 2.444 2.444 0 00.194-1.157l.01-.422V29.58c0-.726-.28-1.136-.855-1.255l-.406-.08c-.297-.062-.34-.232-.34-.328 0-.107.044-.357.46-.357.143 0 .337.013.584.038.4.033.86.054 1.365.054.55 0 1.048-.017 1.5-.046.233-.014.367-.018.397-.018.344 0 .37.22.37.286 0 .117-.049.325-.38.406l-.32.073c-.46.114-.694.61-.694 1.472v7.872l.01.31c0 .951.122 1.147.16 1.184.035.033.243.152 1.253.152a9.462 9.462 0 002.889-.394 2.472 2.472 0 001.505-.987c.039-.079.164-.327.386-.327a.284.284 0 01.209.081.34.34 0 01.083.253 2.628 2.628 0 01-.623 1.402 3.187 3.187 0 01-2.644 1.04c-.198 0-.428-.008-.685-.029l-.973-.071q-.86-.063-1.808-.063a13.167 13.167 0 00-1.845.109 7.542 7.542 0 01-.523.055z" />
  <path d="M207.838 27.714c.139 0 .328.013.57.036.405.034.869.056 1.379.056.553 0 1.055-.017 1.51-.047.227-.013.357-.017.387-.017.144 0 .217.042.217.132 0 .128-.09.214-.264.256l-.318.073c-.54.134-.812.674-.812 1.622v7.872l.009.314a2.289 2.289 0 00.206 1.29 2.63 2.63 0 001.361.195 9.602 9.602 0 002.936-.4 2.594 2.594 0 001.593-1.063c.084-.165.169-.244.25-.244.097 0 .143.06.14.177a2.466 2.466 0 01-.59 1.31 3.03 3.03 0 01-2.524.982c-.195 0-.42-.009-.672-.03l-.975-.07q-.864-.063-1.819-.063a13.273 13.273 0 00-1.867.11c-.214.027-.38.046-.509.053h-.02c-.137 0-.204-.053-.204-.16 0-.093.082-.163.243-.211a1.366 1.366 0 00.844-.559 2.57 2.57 0 00.213-1.234l.01-.418V29.58q0-1.205-.976-1.405l-.408-.081c-.146-.03-.217-.09-.217-.177 0-.137.102-.203.307-.203m0-.307c-.585 0-.615.425-.615.51 0 .09.034.389.462.478l.41.081c.34.07.73.26.73 1.104v8.096l-.01.41a2.251 2.251 0 01-.17 1.084 1.093 1.093 0 01-.668.422c-.402.121-.462.37-.462.506a.464.464 0 00.512.468c.17-.008.344-.028.567-.057a13.057 13.057 0 011.828-.107c.625 0 1.23.021 1.797.062l.975.071c.258.022.492.03.694.03a3.33 3.33 0 002.764-1.098 2.778 2.778 0 00.656-1.481.491.491 0 00-.126-.376.432.432 0 00-.32-.129c-.209 0-.385.14-.524.413a2.341 2.341 0 01-1.413.909 9.336 9.336 0 01-2.842.386 2.714 2.714 0 01-1.158-.12 2.985 2.985 0 01-.102-1.058l-.009-.323v-7.863c0-.783.195-1.228.58-1.324l.31-.07a.573.573 0 00.504-.557c0-.203-.137-.44-.524-.44-.031 0-.167.004-.405.018-.475.03-.977.046-1.492.046-.465 0-.92-.018-1.354-.054a6.562 6.562 0 00-.595-.037zM222.702 40.392a2.728 2.728 0 01-.367-.03 7.404 7.404 0 00-.938-.04l-1.312-.02-1.056.063a4.601 4.601 0 01-.44.027c-.371 0-.4-.259-.4-.339 0-.108.053-.299.407-.355a1.039 1.039 0 00.778-.398 3.39 3.39 0 00.179-1.435v-7.752a2.784 2.784 0 00-.232-1.427 1.422 1.422 0 00-.995-.458c-.329-.066-.409-.228-.42-.352a.325.325 0 01.085-.248.439.439 0 01.332-.113c.044 0 .093.004.149.007a15.028 15.028 0 001.767.083c.443 0 .822-.008 1.138-.03l.606-.05.238-.01c.368 0 .396.247.396.323 0 .1-.044.285-.338.384l-.463.18c-.262.099-.573.53-.573 2.021v6.78a5.625 5.625 0 00.147 1.623 1.25 1.25 0 00.391.582 1.8 1.8 0 00.769.245c.176.025.585.083.585.374 0 .086-.031.365-.433.365z" />
  <path d="M222.221 27.669c.163 0 .243.055.243.169 0 .104-.078.186-.234.239l-.47.181c-.445.17-.67.89-.67 2.165v6.78a5.683 5.683 0 00.156 1.677 1.398 1.398 0 00.446.653 1.953 1.953 0 00.836.272c.302.044.453.115.453.222 0 .14-.093.212-.279.212a2.633 2.633 0 01-.345-.03 7.595 7.595 0 00-.96-.04l-1.31-.02-1.068.062c-.173.018-.319.028-.43.028-.167 0-.246-.06-.246-.186 0-.106.092-.173.277-.203a1.174 1.174 0 00.889-.475 3.669 3.669 0 00.198-1.51v-7.752a3.012 3.012 0 00-.259-1.511 1.544 1.544 0 00-1.098-.525c-.188-.039-.282-.109-.29-.214-.005-.13.083-.194.264-.194.046 0 .1.004.163.008a14.693 14.693 0 001.752.082c.446 0 .83-.009 1.15-.03l.607-.052c.114-.004.19-.008.225-.008m0-.308a3.3 3.3 0 00-.118.004l-.119.005-.622.052c-.288.02-.657.03-1.123.03a14.487 14.487 0 01-1.714-.08 2.84 2.84 0 00-.201-.01.589.589 0 00-.444.16.468.468 0 00-.128.353c.013.158.099.414.536.503a1.329 1.329 0 01.903.393 2.638 2.638 0 01.208 1.342v7.752a3.275 3.275 0 01-.16 1.36.93.93 0 01-.67.322c-.482.077-.534.38-.534.506a.491.491 0 00.554.493c.119 0 .275-.01.461-.029l1.055-.061 1.287.021a7.425 7.425 0 01.92.037 2.955 2.955 0 00.39.032.519.519 0 00.587-.519c0-.423-.54-.5-.717-.526a1.63 1.63 0 01-.702-.22 1.117 1.117 0 01-.337-.512 5.219 5.219 0 01-.136-1.565v-6.78c0-1.533.33-1.825.472-1.879l.472-.181a.552.552 0 00.43-.526.482.482 0 00-.55-.477zM227.197 40.382l-.867-.05c-.285-.014-.617-.021-.994-.021-.164 0-.297.005-.387.015-.317.033-.494.048-.524.048-.293 0-.396-.166-.396-.32a.343.343 0 01.263-.34l.333-.101c.04-.012.162-.075.414-.389a3.962 3.962 0 00.489-.77l.257-.591 4.652-10.33c.038-.087.156-.362.402-.362.118 0 .282.064.387.367l3.888 9.956.2.486a4.115 4.115 0 00.667 1.311 2.152 2.152 0 001.06.381c.362.068.405.267.399.38-.006.091-.058.295-.407.295-.055 0-.171-.007-.351-.017-.307-.03-.85-.045-1.665-.045a12.735 12.735 0 00-1.547.05 1.605 1.605 0 01-.307.04c-.286 0-.387-.174-.387-.337 0-.102.045-.28.35-.34l.277-.06c.154-.032.329-.112.329-.468a6.52 6.52 0 00-.538-1.856l-.455-1.195a1.57 1.57 0 00-.247-.511 1.657 1.657 0 00-.523-.044h-3.272a1.672 1.672 0 00-.747.082c-.032.021-.149.128-.381.66l-.592 1.333a3.59 3.59 0 00-.389 1.295.642.642 0 00.16.5 1.757 1.757 0 00.769.292c.314.063.39.227.398.353l.005.065-.073.139a.433.433 0 01-.334.109zm1.388-6.346a1.065 1.065 0 00-.108.271c0 .07.166.081.264.081l.25.009h2.725c.193 0 .298-.036.298-.07a.607.607 0 00-.038-.163l-.046-.17-1.487-3.755a.91.91 0 00-.078-.159l-1.78 3.956z" />
  <path d="M230.84 27.325c.097 0 .18.088.24.263l3.891 9.961.2.49a4.362 4.362 0 00.705 1.363 2.346 2.346 0 001.138.422c.19.035.278.111.272.22-.006.101-.09.15-.253.15-.054 0-.167-.007-.342-.018-.316-.03-.873-.045-1.674-.045a13.533 13.533 0 00-1.573.052 1.538 1.538 0 01-.28.039c-.157 0-.235-.063-.235-.184 0-.096.074-.158.225-.188l.282-.062a.546.546 0 00.45-.618 6.954 6.954 0 00-.55-1.91l-.454-1.196a1.626 1.626 0 00-.297-.578 1.482 1.482 0 00-.616-.075h-3.273a1.888 1.888 0 00-.833.108 1.958 1.958 0 00-.435.725l-.592 1.333a3.873 3.873 0 00-.401 1.357.778.778 0 00.212.616 1.944 1.944 0 00.838.326c.18.037.27.108.277.212.007.1-.074.151-.25.151-.067 0-.17-.005-.308-.01l-.865-.05c-.29-.014-.623-.022-1.003-.022a3.986 3.986 0 00-.404.016c-.305.031-.477.049-.507.049-.16 0-.243-.057-.243-.169a.19.19 0 01.155-.192l.333-.1a1.302 1.302 0 00.49-.44 4.127 4.127 0 00.506-.8l.26-.597 4.651-10.327c.078-.181.165-.272.262-.272m-1.853 7.225h2.73c.302 0 .451-.074.451-.224a.768.768 0 00-.045-.21l-.043-.16-1.42-3.583-.073-.19c-.075-.192-.151-.292-.234-.3h-.007c-.042 0-.086.06-.14.174l-1.76 3.915a1.038 1.038 0 00-.122.334c0 .16.139.236.418.236l.245.008m1.853-7.532c-.23 0-.413.154-.544.457l-4.649 10.323-.262.6a3.838 3.838 0 01-.465.731c-.237.295-.336.336-.34.337l-.331.1a.494.494 0 00-.373.487.487.487 0 00.55.476c.032 0 .214-.017.538-.05a3.685 3.685 0 01.373-.014c.375 0 .703.007.989.02l.86.05.11.005c.093.004.165.006.218.006a.603.603 0 00.445-.157.423.423 0 00.111-.322c-.01-.146-.09-.405-.523-.492a1.615 1.615 0 01-.696-.256.546.546 0 01-.108-.385 3.475 3.475 0 01.375-1.234l.592-1.331a1.932 1.932 0 01.329-.598 2.21 2.21 0 01.658-.052h3.273a2.387 2.387 0 01.434.027 2.618 2.618 0 01.191.426l.455 1.197a6.412 6.412 0 01.529 1.801c0 .255-.092.294-.203.316l-.287.064a.498.498 0 00-.467.488.49.49 0 00.542.491 1.79 1.79 0 00.343-.044 13 13 0 011.51-.046c.81 0 1.348.014 1.645.044.208.012.318.018.372.018.505 0 .555-.362.56-.435.005-.11-.018-.451-.523-.544a2.016 2.016 0 01-.983-.343 3.934 3.934 0 01-.63-1.252l-.2-.494-3.89-9.957c-.137-.397-.39-.458-.528-.458zm-2.175 7.213l.057-.125 1.641-3.647.01.025 1.42 3.584.033.128.012.04a1.038 1.038 0 01-.121.007h-2.724l-.24-.009a1.06 1.06 0 01-.088-.003z" />
</svg>
