<svg xmlns="http://www.w3.org/2000/svg" viewBox="0 0 620 160" style="enable-background:new 0 0 620 160;" xml:space="preserve">
  <style type="text/css">
	.st0{fill:none;stroke:#FFFFFF;stroke-width:2.026;}
</style>
  <path class="st0" d="M81-50.3c0,0,1.4,30.1,4.7,63.7C85.6,13.4,118.3-19.5,81-50.3z M593.6-39.9c0,0,6.9,60.7,16.8,72.5
	c0,0,18.7-51.2,14.8-72.7C621.2-61.6,593.6-39.9,593.6-39.9z M577.8-52.6c0,0,2,30.1,5.8,63.6C583.6,11,615.6-22.5,577.8-52.6z
	 M575.5-39.7c0,0,12,39.7-6,69.1c0,0-18-25.7-12-69.6C563.4-84.1,575.5-39.7,575.5-39.7z M481.1-43.6c-3.9-2.9-28.2,41.1,0,91.1
	c0,0,44.4-33.1,46.4-92.9C529.4-105.3,481.1-43.6,481.1-43.6z M89.6-31.5c-5,0-2.7,74.4-25.6,87.5c0,0-32.7-67-19.6-85.6
	C57.4-48.1,89.6-31.5,89.6-31.5z M160.4-39.8c0,0-41.8,91.1,0,141.6c0,0,48.8-64.5,52.4-131.9C216.4-97.6,160.4-39.8,160.4-39.8z
	 M214.5-22.6c0,0-12.6,63.6,1.9,93.7c0,0,39.3-70.1,40.6-101.9C258.2-62.7,214.5-22.6,214.5-22.6z M314.6-27.7
	c0,0,43.2,83.7-16.8,127c0,0-60.1-90.4-42-122.1C273.8-54.6,314.6-27.7,314.6-27.7z M155-77.1c0,0-56.8,81.3-29.3,149.2
	c0,0,20.2-113,60.7-126C226.8-66.9,155-77.1,155-77.1z" />
</svg>
