<svg xmlns="http://www.w3.org/2000/svg" width="320px" height="240px" viewBox="0 0 320 240" style="enable-background:new 0 0 320 240;" xml:space="preserve">
  <style type="text/css">
	.st0{fill:#4C4845;}
	.st1{fill:none;}
</style>
  <path id="XMLID_28_" class="st0" d="M103.718,10.322c4.188,0,8.39,0.16,12.593,0.479c6.891,0.535,13.77,1.508,20.644,2.929
	c16.09,3.322,31.998,9.112,47.201,17.515c15.215,8.411,28.58,18.799,39.974,30.667c4.838,5.054,9.332,10.366,13.421,15.902
	c7.102,9.571,13.066,19.782,17.853,30.452c-4.145,0.57-8.277,1.316-12.348,2.218c-6.326-13.497-14.736-26.179-25.035-37.519
	c-4.49-4.916-9.342-9.605-14.552-13.989c-7.609-6.433-16.007-12.228-25.102-17.256c-9.089-5.023-18.45-9.043-27.976-12.082
	c-6.463-2.068-13.015-3.683-19.545-4.856c-8.922-1.598-17.878-2.381-26.766-2.381c-6.163,0-12.296,0.377-18.358,1.12
	c-1.394-3.921-2.951-7.814-4.656-11.613C88.524,10.85,96.098,10.322,103.718,10.322" />
  <path id="XMLID_27_" class="st0" d="M81.066,11.908L81.066,11.908l-0.731,0.716l4.779,10.803l0.608,0.094
	c7.723,21.567,10.768,44.56,8.591,67.358c18.133-13.977,39.221-23.644,61.578-28.575c4.082-0.895,8.196-1.651,12.327-2.226
	c1.725,3.812,3.292,7.71,4.676,11.625c0.312,0.836,0.599,1.687,0.898,2.532c6.981,20.582,9.71,42.387,7.758,64.009l-0.041,0.584
	l-0.042,0.222c18.166-13.958,39.227-23.64,61.589-28.566l0.429,0.478l11.68-1.706l0.239-0.99c1.711,3.806,3.271,7.698,4.673,11.624
	c14.492,40.516,12.446,86.075-9.531,125.834c-18.843,34.091-49.111,58.058-83.877,70.05l-37.676,68.166l-14.039-7.76l54.349-98.328
	l37.941-10.126c0.933-0.256,1.819-0.617,2.596-1.078c2.619-1.31,4.86-3.355,6.358-6.065l0.342-0.621
	c1.15-2.077,1.733-4.317,1.828-6.555l-44.937,11.99l19.137-34.626l39.798-10.626c0.931-0.239,1.815-0.62,2.614-1.069
	c2.612-1.297,4.845-3.368,6.34-6.072l0.345-0.625c1.146-2.073,1.737-4.312,1.831-6.548l-46.815,12.497l19.101-34.558l25.174-6.722
	c0.941-0.244,1.823-0.615,2.621-1.075c2.607-1.311,4.836-3.363,6.336-6.079l0.34-0.614c1.15-2.081,1.747-4.315,1.838-6.542
	l-32.054,8.542l27.219-49.247c-25.688,5.463-49.596,17.69-68.786,35.86c-10.124,9.588-18.935,20.835-26.003,33.622
	c-7.066,12.786-11.902,26.224-14.632,39.895c-4.816,24.027-3.106,48.75,4.371,71.881l-11.263,20.378
	c-5.565,0.578-11.175,0.868-16.814,0.868c-4.213,0-8.442-0.162-12.678-0.486c-6.854-0.536-13.75-1.503-20.603-2.912
	c-8.957-1.86-17.838-4.46-26.578-7.85l-28.446,51.465l-14.002-7.739l70.351-127.282l37.967-10.15
	c0.948-0.25,1.831-0.611,2.632-1.059c2.609-1.315,4.843-3.365,6.34-6.077l0.344-0.619c1.148-2.077,1.747-4.307,1.82-6.558
	l-44.99,12.018l19.142-34.635l39.849-10.644c0.951-0.228,1.822-0.616,2.614-1.069c2.616-1.295,4.853-3.363,6.349-6.067l0.344-0.626
	c1.146-2.072,1.729-4.316,1.822-6.551l-46.869,12.505l19.104-34.565l25.246-6.714c0.941-0.243,1.808-0.623,2.602-1.085
	c2.626-1.3,4.839-3.36,6.34-6.076l0.341-0.614c1.151-2.081,1.753-4.311,1.846-6.537l-32.242,8.602l27.161-49.145l0.112-0.2
	c-25.676,5.468-49.566,17.689-68.741,35.848c-10.134,9.584-18.923,20.841-25.99,33.629c-7.068,12.786-11.925,26.213-14.644,39.888
	c-4.814,24.049-3.129,48.817,4.384,71.961l-25.49,46.115c-13.547-7.997-25.54-17.56-35.892-28.351
	c-4.859-5.065-9.337-10.384-13.464-15.918c-1.66-2.276-3.276-4.579-4.857-6.928l-20.706,37.465l-13.978-7.727l54.296-98.231
	l38.117-10.154c0.936-0.256,1.82-0.617,2.603-1.075c2.613-1.313,4.847-3.362,6.346-6.073l0.342-0.619
	c1.148-2.078,1.74-4.313,1.827-6.557l-45.109,12.051l19.141-34.631l39.978-10.675c0.917-0.247,1.82-0.617,2.61-1.07
	c2.602-1.303,4.843-3.369,6.339-6.074l0.345-0.625c1.145-2.072,1.74-4.311,1.822-6.551L22.35,122.107l19.1-34.556l25.34-6.769
	c0.937-0.246,1.826-0.614,2.628-1.07c2.605-1.312,4.85-3.354,6.353-6.07l0.339-0.616c1.151-2.08,1.743-4.315,1.819-6.551
	l-32.373,8.639l27.351-49.44c-39.233,8.37-74.313,32.435-94.786,69.475c-19.508,35.292-22.01,75.572-10.216,111.883l-7.817,14.144
	c-0.846-2.055-1.64-4.137-2.377-6.206c-14.499-40.511-12.439-86.097,9.527-125.837c21.975-39.76,59.464-65.728,101.484-75.008
	C72.786,13.22,76.923,12.475,81.066,11.908" />
  <path id="XMLID_24_" class="st0" d="M81.066,11.908c1.705,3.799,3.262,7.691,4.657,11.613l-0.609-0.094l-4.779-10.803L81.066,11.908
	z M255.404,108.266L255.404,108.266l-0.239,0.99l-11.68,1.706l-0.428-0.478C247.127,109.581,251.259,108.835,255.404,108.266" />
  <rect id="XMLID_23_" x="0.5" y="5.954" class="st1" width="1206.333" height="234.132" />
</svg>
