<?xml version="1.0" encoding="UTF-8"?>
<!-- Generator: Adobe Illustrator 25.2.1, SVG Export Plug-In . SVG Version: 6.00 Build 0)  -->
<svg xmlns="http://www.w3.org/2000/svg" xmlns:xlink="http://www.w3.org/1999/xlink" width="300px" height="71px" version="1.1" id="Layer_1" x="0px" y="0px" viewBox="0 0 267.1 63.8" style="enable-background:new 0 0 267.1 63.8;" xml:space="preserve">
<style type="text/css">
	.st0{fill:#00685E;}
</style>
<g>
	<path class="st0" d="M45.2,7.1c-0.5-0.5-1.1-0.9-1.6-1.4c-1.6-1.2-3.2-2.3-5-3.1c-1-0.5-2.1-0.9-3.2-1.3C32.6,0.5,29.9,0,27,0   c-2.9,0-5.7,0.5-8.3,1.3c-1.1,0.4-2.2,0.8-3.2,1.3c-1.8,0.9-3.5,1.9-5.1,3.1C9.8,6.1,9.3,6.6,8.7,7.1C3.4,12,0,19.1,0,27   c0,6.7,2.5,12.9,6.6,17.7v13.5h2.7V38.6l-4.7-4.7c-0.1-0.1-0.2-0.2-0.3-0.4c-0.3-0.4-0.4-0.9-0.4-1.5V32c0-0.4,0.1-0.8,0.3-1.1   l5.6,5.6v-6.9l-4.9-4.9c-0.1-0.1-0.2-0.2-0.3-0.4C4.1,23.8,4,23.3,4,22.8v-0.1c0-0.4,0.1-0.8,0.3-1.1l5.8,5.8v-6.8l-3.1-3.1   c-0.1-0.1-0.2-0.2-0.3-0.4c-0.3-0.4-0.4-0.9-0.4-1.5v-0.1c0-0.4,0.1-0.8,0.3-1.1l4,4V8.5c3.3,3,5.8,6.8,7.1,11.2   c0.7,2.3,1.1,4.7,1.1,7.3s-0.4,5-1.1,7.3c-1.2,4-3.5,7.7-6.4,10.5v4c1.3,1,2.8,1.8,4.3,2.5c1,0.5,2.1,0.9,3.2,1.3   c1.5,0.5,3,0.8,4.5,1v10.2h2.7V38.6l-4.7-4.7c-0.1-0.1-0.2-0.2-0.3-0.4c-0.3-0.4-0.4-0.9-0.4-1.5V32c0-0.4,0.1-0.8,0.3-1.1l5.6,5.6   v-6.9l-4.9-5c-0.1-0.1-0.2-0.2-0.3-0.4c-0.3-0.4-0.4-0.9-0.4-1.5v-0.1c0-0.4,0.1-0.8,0.3-1.1l5.8,5.8v-6.8l-3.1-3.1   c-0.1-0.1-0.2-0.2-0.3-0.4c-0.3-0.4-0.4-0.9-0.4-1.5v-0.1c0-0.4,0.1-0.8,0.3-1.1l4,4V8.5v0c3.3,3,5.8,6.8,7.1,11.2   c0.7,2.3,1.1,4.7,1.1,7.3s-0.4,5-1.1,7.3c-1.2,4-3.5,7.7-6.4,10.5v9.1c2.6-0.1,5.1-0.5,7.5-1.3c1.1-0.4,2.2-0.8,3.2-1.3   c0.4-0.2,0.9-0.4,1.3-0.6v7.4h2.7V38.7l-4.7-4.7c-0.1-0.1-0.2-0.2-0.3-0.4c-0.3-0.4-0.4-0.9-0.4-1.5V32c0-0.4,0.1-0.8,0.3-1.1   l5.6,5.6v-6.9l-5-5c-0.1-0.1-0.2-0.2-0.3-0.4c-0.3-0.4-0.4-0.9-0.4-1.5v-0.1c0-0.4,0.1-0.8,0.3-1.1l5.8,5.8v-6.8l-3.1-3.1   c-0.1-0.1-0.2-0.2-0.3-0.4c-0.3-0.4-0.4-0.9-0.4-1.5v-0.1c0-0.4,0.1-0.8,0.3-1.1l4,4l0-9.8c5,4.6,8.2,11.1,8.2,18.5   c0,7-2.9,13.3-7.5,17.8v2.8c0.3-0.2,0.6-0.5,0.9-0.7c5.4-4.9,8.7-12,8.7-19.9C53.9,19.1,50.5,12,45.2,7.1z M35.3,16.6   c-1.5-3.6-3.8-6.9-6.7-9.5c-0.5-0.5-1.1-0.9-1.6-1.4c-0.6,0.4-1.1,0.9-1.6,1.4c-0.1,0.1-0.2,0.2-0.3,0.3c-2.7,2.5-4.8,5.6-6.3,9.1   l0,0.1l0,0c-1.5-3.6-3.8-6.9-6.7-9.5c2-1.5,4.3-2.7,6.7-3.6c1-0.4,2.1-0.7,3.2-0.9c1.6-0.3,3.3-0.5,5.1-0.5c1.7,0,3.4,0.2,5.1,0.5   c1.1,0.2,2.2,0.5,3.2,0.9c2.4,0.9,4.7,2.1,6.7,3.6C39.1,9.7,36.8,12.9,35.3,16.6z"></path>
	<g>
		<path class="st0" d="M157.9,44.8l-0.3,0.1c-0.2,0-0.3,0.1-0.3,0.2c0,0.1,0.1,0.2,0.3,0.2c0.1,0,0.2,0,0.3,0c0.2,0,0.8-0.1,1.8-0.1    c0.9,0,1.5,0,1.9,0.1c0.2,0,0.3,0,0.4,0c0.2,0,0.3-0.1,0.3-0.2c0-0.1-0.1-0.2-0.3-0.2c-0.6-0.1-1.1-0.3-1.3-0.5    c-0.2-0.2-0.5-0.7-0.8-1.5l-0.2-0.6L155.3,31c-0.1-0.2-0.2-0.3-0.3-0.3c-0.1,0-0.2,0.1-0.3,0.3l-5.2,11.6l-0.3,0.7    c-0.2,0.3-0.3,0.6-0.6,0.9c-0.2,0.3-0.4,0.5-0.5,0.5l-0.4,0.1c-0.1,0-0.2,0.1-0.2,0.2c0,0.1,0.1,0.2,0.3,0.2c0,0,0.2,0,0.6-0.1    c0.1,0,0.3,0,0.5,0c0.4,0,0.8,0,1.1,0l1,0.1c0.2,0,0.3,0,0.3,0c0.2,0,0.3-0.1,0.3-0.2c0-0.1-0.1-0.2-0.3-0.2    c-0.5-0.1-0.8-0.2-0.9-0.4c-0.2-0.1-0.2-0.4-0.2-0.7c0-0.3,0.2-0.8,0.5-1.5l0.7-1.5c0.2-0.5,0.4-0.7,0.5-0.8    c0.1-0.1,0.4-0.1,0.9-0.1h3.7c0.4,0,0.6,0,0.7,0.1c0.1,0.1,0.2,0.3,0.3,0.7l0.5,1.3c0.4,1.1,0.6,1.8,0.6,2.2    C158.4,44.5,158.3,44.7,157.9,44.8z M156,38.9h-3.1l-0.3,0c-0.3,0-0.5-0.1-0.5-0.3c0-0.1,0-0.2,0.1-0.4l2-4.4    c0.1-0.1,0.1-0.2,0.2-0.2c0.1,0,0.2,0.1,0.3,0.3l0.1,0.2l1.6,4l0,0.2c0,0.1,0,0.2,0,0.2C156.5,38.8,156.3,38.9,156,38.9z"></path>
		<path class="st0" d="M202.5,15.1c0-1.3-1.4-1.5-2.1-1.5c-3.3,0-5.1,3.8-5.1,6.2c0,0.4,0.1,1.6,0.9,2.5c0.5,0.5,1,0.8,2.1,0.8    c2.2,0,3.9-1.4,3.9-2c0-0.1-0.1-0.2-0.2-0.2c-0.1,0-0.5,0.4-0.6,0.5c-0.7,0.5-1.3,0.7-2,0.7c-1.4,0-2.9-0.9-2.9-2.8    c0-0.3,0-0.6,0-0.7C202.3,18.3,202.5,15.6,202.5,15.1z M200,14.1c1,0,1.3,0.7,1.3,1.3c0,0.9-0.7,1.5-1.1,1.8    c-1,0.7-2.2,0.8-3.4,0.9C197,17.1,197.8,14.1,200,14.1z"></path>
		<path class="st0" d="M159,8.6c-0.1,0-0.2,0-0.4,0.2C158.5,9,158.4,9,158.3,9c-0.1,0-0.7-0.3-0.7-0.3c-2.6-1.3-4.4-1.3-4.9-1.3    c-4.4,0-8.1,3.5-8.1,8.3c0,4.6,3.3,7.5,7.8,7.5c1.5,0,2.5-0.2,3.4-0.6c0.1,0,0.4-0.2,0.6-0.2c0.1,0,0.1,0.1,0.1,0.2    c0,0.4-0.2,1.9-0.3,2.2c-0.1,0.6-0.4,1.3-0.9,1.3c-0.3,0-0.9-0.4-1-1.4c0-0.3,0-0.4-0.3-0.4c-0.2,0-0.2,0.1-0.4,0.6    c0,0.1-0.3,0.7-0.3,0.8c0,0.5,0.9,1,1.7,1c1.2,0,2.3-0.9,2.7-2c0.4-1.4,0.7-4.1,0.8-5.1c0.3-3.4,0.4-3.6,1.2-3.8    c0.5-0.2,0.5-0.2,0.5-0.3c0-0.1,0-0.2-0.1-0.2c-0.3,0-1.5,0.2-1.8,0.2c-0.4,0-3-0.1-3-0.1c-0.2,0-0.3,0.1-0.3,0.2    c0,0.1,0.1,0.3,0.2,0.3h0.8c0.6,0,1.5,0.2,1.5,0.9c0,0.9-0.2,3.9-0.6,4.6c-0.5,0.7-2.1,1.3-3.8,1.3c-2.8,0-6.4-2-6.4-7.4    c0-2,0.4-4.1,1.8-5.5c1.1-1.1,2.6-1.5,4.2-1.5c0.7,0,3.1,0.1,5.1,1.9c0.7,0.8,0.9,1.2,1.1,2c0.1,0.4,0.2,0.6,0.4,0.6    c0.2,0,0.2-0.2,0.2-0.4c0-0.3-0.1-1.6-0.1-1.9c0-0.2,0.1-1.2,0.1-1.4C159.2,8.8,159.1,8.6,159,8.6z"></path>
		<path class="st0" d="M196.3,32.5c0.1-0.1,0.3-0.1,0.6-0.1h2.9c0.6,0,0.9,0.1,1.1,0.2c0.2,0.1,0.3,0.5,0.4,0.9    c0,0.2,0.1,0.3,0.2,0.3c0.1,0,0.2-0.1,0.2-0.3c0-0.1,0-0.3-0.1-0.5c0-0.2-0.1-0.5-0.1-0.9c0-0.4,0-0.6-0.1-0.7    c-0.1-0.1-0.3-0.1-0.7-0.1h-11c-0.2,0-0.4,0.1-0.5,0.1c-0.1,0.1-0.1,0.3-0.1,0.6c0,0.3-0.1,0.7-0.2,1.2c-0.1,0.4-0.1,0.6-0.1,0.8    c0,0.2,0.1,0.3,0.2,0.3c0.1,0,0.2-0.1,0.3-0.4c0.1-0.6,0.3-1,0.6-1.2c0.2-0.2,0.6-0.3,1.2-0.3h2.7c0.3,0,0.4,0,0.5,0.1    c0.1,0.1,0.1,0.2,0.1,0.5l0,0.3v10.1c0,0.6-0.1,1-0.3,1.2c-0.2,0.2-0.5,0.4-1.1,0.4c-0.2,0-0.3,0.1-0.3,0.2c0,0.1,0.1,0.2,0.3,0.2    c0.1,0,0.3,0,0.7-0.1c0.2,0,0.4,0,0.7,0l0.8,0l0.7,0c0.5,0,0.8,0,0.9,0c0.3,0,0.4,0.1,0.5,0.1c0.2,0,0.3-0.1,0.3-0.2    c0-0.1-0.1-0.2-0.4-0.2c-0.9-0.2-1.3-0.6-1.3-1.4l0-0.4v-10C196.2,32.7,196.2,32.5,196.3,32.5z"></path>
		<path class="st0" d="M164.1,42.9c0.4,0.8,1.1,1.4,2,1.8c0.9,0.4,2,0.7,3.1,0.7c1,0,1.9-0.2,2.8-0.6c0.9-0.4,1.5-0.9,2-1.5    c0.7-1,1.1-2.4,1.1-4.3v-5c0-0.8,0.1-1.4,0.2-1.7c0.1-0.3,0.4-0.5,0.8-0.7c0.1-0.1,0.2-0.1,0.2-0.2c0-0.1-0.1-0.2-0.2-0.2    c-0.1,0-0.2,0-0.4,0c-0.2,0-0.6,0-1.4,0c-0.4,0-0.7,0-0.9-0.1c-0.3,0-0.5-0.1-0.7-0.1c-0.1,0-0.2,0.1-0.2,0.2    c0,0.1,0.1,0.2,0.3,0.2c0.6,0.1,1,0.3,1.2,0.7c0.2,0.4,0.4,1,0.4,1.8v5.3c0,1.8-0.4,3.1-1.2,4c-0.8,0.9-2,1.3-3.6,1.3    c-1.8,0-3.1-0.5-3.9-1.6c-0.5-0.7-0.8-2-0.8-3.7v-5.1l0-0.7c0-0.7,0.1-1.1,0.2-1.4c0.1-0.3,0.4-0.4,0.8-0.5c0.2,0,0.3-0.1,0.3-0.2    c0-0.1-0.1-0.2-0.2-0.2c-0.1,0-0.3,0-0.5,0c-0.3,0-0.5,0-0.6,0h-0.8l-0.8,0c-0.1,0-0.4,0-0.7,0c-0.3,0-0.5,0-0.7,0    c-0.3,0-0.4,0.1-0.4,0.2c0,0.1,0.1,0.2,0.3,0.2c0.6,0.1,1,0.3,1.2,0.5c0.2,0.3,0.3,0.8,0.3,1.5l0,0.6v5.2    C163.4,40.9,163.7,42.1,164.1,42.9z"></path>
		<path class="st0" d="M179,43.7c0.1,0.4,0.1,0.6,0.2,0.7c0,0.1,0.1,0.2,0.2,0.3c0.3,0.2,0.7,0.4,1.4,0.5c0.6,0.1,1.2,0.2,1.7,0.2    c1.4,0,2.6-0.4,3.6-1.2c0.9-0.8,1.4-1.8,1.4-3.1c0-1.9-1.3-3.2-3.8-4c-1.3-0.4-2.1-0.7-2.4-0.9c-0.3-0.2-0.6-0.4-0.9-0.8    c-0.3-0.4-0.5-0.9-0.5-1.5c0-0.6,0.2-1.2,0.7-1.6c0.5-0.4,1.1-0.6,1.8-0.6c0.9,0,1.8,0.2,2.5,0.7c0.7,0.5,1.2,1.1,1.5,1.8    c0.1,0.3,0.2,0.5,0.3,0.5c0.1,0,0.2-0.1,0.2-0.3c0-0.1,0-0.2-0.1-0.4l-0.2-1.1c-0.1-0.6-0.1-0.9-0.1-1c0-0.3-0.1-0.5-0.3-0.5    c-0.1,0-0.1,0-0.1,0l-0.1,0.1c-0.1,0.1-0.2,0.1-0.2,0.1c-0.1,0-0.1,0-0.2,0l-0.7-0.3c-0.5-0.2-1.1-0.3-1.8-0.3    c-1.3,0-2.3,0.3-3.2,1c-0.8,0.7-1.2,1.6-1.2,2.7c0,1,0.3,1.8,0.9,2.4c0.6,0.6,1.7,1.2,3.2,1.7c1.5,0.5,2.3,0.9,2.6,1.1    c0.6,0.5,0.9,1.2,0.9,1.9c0,0.8-0.3,1.5-1,2c-0.6,0.6-1.4,0.8-2.4,0.8c-0.9,0-1.8-0.3-2.6-0.9c-0.8-0.6-1.3-1.3-1.5-2.1    c-0.1-0.3-0.2-0.5-0.3-0.5c-0.1,0-0.2,0.1-0.2,0.3c0,0.3,0.1,0.7,0.3,1.3C178.9,43.4,179,43.7,179,43.7z"></path>
		<path class="st0" d="M177.6,22.4l0.6-3.9c0.2-1.1,0.6-3.8,1.8-3.8c0.5,0,0.8,0.3,0.9,0.8c0,0.1,0.1,0.4,0.2,0.4    c0.3,0,0.5-1.2,0.5-1.7c0-0.4-0.2-0.6-0.8-0.6c-1.4,0-2.5,2-2.8,2.7h0c0-0.9-0.2-2.7-1.2-2.7c-1.1,0-1.9,1.6-1.9,3    c0,0,0,0.4,0.2,0.4c0.1,0,0.2-0.3,0.2-0.3c0.4-1.3,0.6-1.6,1.1-1.6c0.7,0,0.8,0.9,0.8,1.6c0,0.6-0.1,1.6-0.2,2.1l-0.6,3.5    c0,0.1-0.1,0.4-0.1,0.5c0,0.2,0.2,0.2,0.7,0.2C177.5,23.1,177.6,23,177.6,22.4z"></path>
		<path class="st0" d="M170.8,15.7c0.1-0.3,0.4-1.9,0.5-2.4c0-0.1,0.1-0.4,0.1-0.5c0,0,0-0.2-0.1-0.2c-0.1,0-0.3,0.3-0.4,0.5    c0,0.1-0.4,0.8-0.7,0.8c-0.1,0-0.3,0-0.4-0.1c-0.5-0.2-0.8-0.2-1.2-0.2c-2.4,0-6,3.4-6,6.9c0,0.9,0.4,2.6,2.1,2.6    c2.3,0,3.7-2.1,4.2-2.7c0.2,1.4,0.4,2.7,1,2.7c1.1,0,2.9-2.3,2.9-2.7c0-0.1,0-0.2-0.1-0.2c-0.1,0-0.2,0.1-0.9,0.9    c-0.2,0.2-0.6,0.7-1,0.7c-0.4,0-0.6-0.7-0.6-1.3c0-0.5,0.1-1.5,0.2-1.6L170.8,15.7z M169.7,15.3l-0.7,3.5    c-0.3,1.6-1.9,3.3-3.4,3.3c-1.2,0-1.6-0.9-1.6-1.8c0-2.4,2.2-6.1,4.5-6.1C169.1,14.1,169.8,14.5,169.7,15.3z"></path>
		<path class="st0" d="M189.3,20.5L189.3,20.5c0,0.9,0.1,2.5,1.1,2.5c1.2,0,2.7-1.9,2.7-2.6c0-0.1,0-0.2-0.2-0.2    c-0.2,0-0.2,0-0.5,0.5c-0.2,0.3-0.7,0.9-1.2,0.9c-0.3,0-0.7-0.2-0.7-1.2c0-0.2,0-0.9,0.1-1.1l1.5-10.3c0-0.3,0.2-1.8,0.2-2    c0-0.1-0.2-0.2-0.2-0.2c0,0-2.9,0.3-3.1,0.3c-0.1,0-0.3,0-0.3,0.2c0,0.1,0,0.1,0,0.1c0.2,0.1,0.8,0.1,1,0.1c0.4,0,0.9,0,1.1,0.2    c0.1,0.1,0.1,0.2,0.1,0.3c0,0.3-0.5,3.8-0.9,5.9c-0.8-0.5-1.2-0.6-1.6-0.6c-2.5,0-5.4,3.7-5.4,6.6c0,1.2,0.7,2.9,2.6,2.9    C187.8,23.1,188.9,21.2,189.3,20.5z M184.6,19.7c0-2.2,1.8-5.6,4-5.6c0.8,0,1.6,0.4,1.5,1.1l-0.5,3.6c-0.2,1.4-1.5,3.1-3,3.1    C185.3,22,184.6,20.9,184.6,19.7z"></path>
		<path class="st0" d="M213.2,17.5c0-0.1,0.1-1.9-0.2-2.7c-0.2-0.5-0.6-1.1-1.4-1.1c-1.6,0-2.9,1.1-3.9,2.5h0c0-0.8,0-2.5-0.9-2.5    c-1,0-1.9,1.8-1.9,2.4c0,0.1,0,0.3,0.2,0.3c0.1,0,0.2-0.1,0.3-0.3c0.2-0.4,0.4-0.9,0.9-0.9c0.6,0,0.6,1,0.6,1.2c0,0.4,0,1-0.1,1.3    l-0.7,4.5c-0.1,0.5-0.2,0.7-0.2,0.8c0,0.2,0,0.3,0.7,0.3c0.5,0,0.6,0,0.8-1.6l0.5-3c0.5-2.9,1.8-4.2,2.8-4.2    c1.1,0,1.4,1.3,1.4,2.2c0,0.5,0,1-0.1,1.5l-0.1,1c0,0.5-0.2,2.5-0.2,2.9c0,0.2,0,1.1,0.8,1.1c1.2,0,2.5-1.7,2.5-2.2l0-0.2    c-0.2,0.2-0.9,1-1.1,1.1c-0.2,0.1-0.3,0.2-0.5,0.2c-0.3,0-0.4-0.3-0.4-0.8c0-0.5,0-1,0.1-1.4L213.2,17.5z"></path>
		<path class="st0" d="M219.7,22.6c-0.9,0-1.1-0.4-1.3-0.7c-0.6-1-0.7-1.1-1.1-1.1c-0.3,0-0.5,0.1-0.5,0.6c0,1,1,1.7,2.6,1.7    c1.2,0,3-0.5,3-2.4c0-1.2-0.6-1.9-2.3-3.7c-0.3-0.4-0.9-1-0.9-1.8c0-0.5,0.4-1.1,1.1-1.1c0.6,0,0.9,0.3,1.2,0.8    c0.2,0.4,0.4,0.6,0.8,0.6c0.3,0,0.6-0.3,0.6-0.6c0-0.7-0.9-1.3-2.1-1.3c-1.4,0-2.7,0.8-2.7,2.2c0,0.9,0.5,1.7,1.7,2.9    c0.9,1,1.4,1.6,1.4,2.5C221.3,21.8,221.1,22.6,219.7,22.6z"></path>
		<path class="st0" d="M227.6,44.8l-0.3,0.1c-0.2,0-0.3,0.1-0.3,0.2c0,0.1,0.1,0.2,0.3,0.2c0.1,0,0.2,0,0.3,0c0.2,0,0.8-0.1,1.8-0.1    c0.9,0,1.5,0,1.9,0.1c0.2,0,0.3,0,0.4,0c0.2,0,0.3-0.1,0.3-0.2c0-0.1-0.1-0.2-0.3-0.2c-0.6-0.1-1.1-0.3-1.3-0.5    c-0.2-0.2-0.5-0.7-0.8-1.5l-0.2-0.6L224.9,31c-0.1-0.2-0.2-0.3-0.3-0.3c-0.1,0-0.2,0.1-0.3,0.3l-5.2,11.6l-0.3,0.7    c-0.1,0.3-0.3,0.6-0.6,0.9c-0.2,0.3-0.4,0.5-0.5,0.5l-0.4,0.1c-0.1,0-0.2,0.1-0.2,0.2c0,0.1,0.1,0.2,0.3,0.2c0,0,0.2,0,0.6-0.1    c0.1,0,0.3,0,0.5,0c0.4,0,0.8,0,1.1,0l1,0.1c0.2,0,0.3,0,0.3,0c0.2,0,0.3-0.1,0.3-0.2c0-0.1-0.1-0.2-0.3-0.2    c-0.5-0.1-0.8-0.2-0.9-0.4c-0.2-0.1-0.2-0.4-0.2-0.7c0-0.3,0.2-0.8,0.5-1.5l0.7-1.5c0.2-0.5,0.4-0.7,0.5-0.8    c0.1-0.1,0.4-0.1,0.9-0.1h3.7c0.4,0,0.6,0,0.7,0.1c0.1,0.1,0.2,0.3,0.3,0.7l0.5,1.3c0.4,1.1,0.6,1.8,0.6,2.2    C228.1,44.5,227.9,44.7,227.6,44.8z M225.6,38.9h-3.1l-0.3,0c-0.3,0-0.5-0.1-0.5-0.3c0-0.1,0-0.2,0.1-0.4l2-4.4    c0.1-0.1,0.1-0.2,0.2-0.2c0.1,0,0.2,0.1,0.3,0.3l0.1,0.2l1.6,4l0,0.2c0,0.1,0.1,0.2,0.1,0.2C226.1,38.8,226,38.9,225.6,38.9z"></path>
		<path class="st0" d="M245.7,7.7c0.4,0,0.6,0.2,0.8,0.4c0.2,0.2,0.3,0.3,0.4,0.6c0,0,0.1,0.3,0.2,0.3c0.2,0,0.4-1.7,0.4-1.7    c0-0.4-0.6-0.4-0.9-0.4c-0.8,0-1.4,0.3-2.1,0.9c-1.8,1.7-2.3,4.2-2.6,5.9c-0.2,0-0.6,0.1-0.9,0.1l-1.2,0c-0.3,0-0.3,0.1-0.3,0.4    c0,0.3,0.1,0.4,0.3,0.4c0.1,0,0.6,0,0.7,0c0.2,0,0.9,0,1,0c0.1,0,0.1,0.1,0.1,0.2c0,0.2-0.2,2.3-0.3,2.5l-0.6,5.4    c-0.3,2.7-0.7,3.3-1.2,3.3c-0.3,0-0.6-0.3-0.6-0.9c0-0.1,0-0.3-0.1-0.3c-0.2,0-0.7,1.6-0.7,1.7c0,0.4,0.5,0.4,0.6,0.4    c0.8,0,1.5-0.8,1.7-0.9c1-1,1.4-2,1.7-5.3l0.4-4.1c0-0.2,0.2-1.9,0.4-2c0.1,0,0.4,0,1,0h0.7c0.3,0,0.5,0,0.5-0.4    c0-0.1,0-0.2-0.3-0.3c-0.3,0-0.5,0-2,0C243.3,11.5,243.9,7.7,245.7,7.7z"></path>
		<path class="st0" d="M235.4,42.9c0,0.7-0.1,1.1-0.2,1.4c-0.2,0.3-0.5,0.5-0.9,0.6c-0.2,0.1-0.3,0.1-0.3,0.2c0,0.1,0.1,0.2,0.3,0.2    c0.1,0,0.3,0,0.6-0.1c0.6-0.1,1.3-0.1,2.1-0.1c0.7,0,1.4,0,2,0.1l1.1,0.1c0.3,0,0.5,0,0.8,0c1.3,0,2.3-0.4,2.8-1.1    c0.4-0.5,0.6-1,0.7-1.5c0-0.1,0-0.2-0.2-0.2c-0.1,0-0.2,0.1-0.3,0.3c-0.3,0.5-0.9,0.9-1.8,1.2c-0.9,0.3-2,0.5-3.3,0.5    c-0.9,0-1.4-0.1-1.5-0.2c-0.2-0.2-0.2-0.6-0.2-1.5l0-0.4v-8.9c0-1.1,0.3-1.7,0.9-1.8l0.4-0.1c0.2,0,0.3-0.1,0.3-0.3    c0-0.1-0.1-0.1-0.2-0.1c0,0-0.2,0-0.4,0c-0.5,0-1.1,0.1-1.7,0.1c-0.6,0-1.1,0-1.6-0.1c-0.3,0-0.5,0-0.6,0c-0.2,0-0.3,0.1-0.3,0.2    c0,0.1,0.1,0.2,0.2,0.2l0.5,0.1c0.7,0.2,1.1,0.7,1.1,1.6v9.1L235.4,42.9z"></path>
		<path class="st0" d="M247,44.3c-0.1,0.3-0.5,0.4-1,0.5c-0.2,0-0.3,0.1-0.3,0.2c0,0.1,0.1,0.2,0.3,0.2c0.1,0,0.3,0,0.5,0l1.2-0.1    l1.5,0c0.5,0,0.9,0,1.1,0c0.2,0,0.3,0,0.4,0c0.2,0,0.3-0.1,0.3-0.2c0-0.1-0.2-0.2-0.5-0.2c-0.4-0.1-0.7-0.2-0.9-0.3    c-0.2-0.1-0.4-0.4-0.5-0.7c-0.1-0.3-0.2-0.9-0.2-1.9v-7.6c0-1.4,0.3-2.2,0.8-2.4l0.5-0.2c0.2-0.1,0.3-0.2,0.3-0.3    c0-0.1-0.1-0.2-0.3-0.2c0,0-0.1,0-0.3,0l-0.7,0.1c-0.4,0-0.8,0-1.3,0c-0.8,0-1.5,0-2-0.1c-0.1,0-0.1,0-0.2,0    c-0.2,0-0.3,0.1-0.3,0.2c0,0.1,0.1,0.2,0.3,0.2c0.6,0.1,1,0.3,1.2,0.6c0.2,0.3,0.3,0.9,0.3,1.7v8.7C247.3,43.5,247.2,44,247,44.3z    "></path>
		<path class="st0" d="M207,38.8l0.2,0h1.3c0.4,0,0.6,0.1,0.8,0.4l0.1,0.2l2.5,3.9c0.5,0.8,1,1.3,1.5,1.6c0.5,0.3,1,0.5,1.6,0.5    c0.4,0,0.7,0,1-0.1c0.3-0.1,0.4-0.2,0.5-0.3c0-0.1-0.1-0.1-0.2-0.1l-0.3,0c-0.7,0-1.5-0.7-2.4-2l-0.3-0.5l-2.8-4.1    c1.7-0.8,2.5-2,2.5-3.5c0-1.2-0.4-2-1.2-2.6c-0.8-0.6-2-0.9-3.5-0.9c-0.4,0-0.9,0-1.4,0.1c-0.8,0-1.3,0.1-1.6,0.1    c-0.4,0-0.7,0-0.9,0c-0.4,0-0.7,0-0.7,0c-0.2,0-0.3,0.1-0.3,0.2c0,0.1,0.1,0.2,0.3,0.2l0.5,0.1c0.7,0.1,1.1,0.7,1.1,1.8l0,1.1v7.3    c0,1.2-0.1,1.9-0.3,2.3c-0.2,0.4-0.5,0.6-1.1,0.7c-0.2,0-0.3,0.1-0.3,0.2c0,0.1,0.1,0.2,0.3,0.2c0.1,0,0.3,0,0.5,0    c0.3,0,0.6-0.1,0.8-0.1l0.5,0l1,0c0.6,0,1,0,1.3,0c0.3,0,0.5,0,0.6,0c0.2,0,0.4-0.1,0.3-0.2c0-0.1-0.1-0.2-0.4-0.2    c-0.6-0.1-1.1-0.2-1.3-0.4c-0.2-0.2-0.4-0.4-0.4-0.6c-0.1-0.2-0.1-0.6-0.1-1.2l0-0.4v-3.2C206.8,38.9,206.9,38.8,207,38.8z     M206.8,32.8c0-0.3,0.1-0.6,0.2-0.7c0.2-0.1,0.4-0.2,0.8-0.2c1.1,0,2,0.3,2.7,1c0.7,0.6,1,1.4,1,2.4c0,0.9-0.3,1.5-0.8,2    c-0.5,0.5-1.2,0.7-2.1,0.7h-1.2c-0.3,0-0.5,0-0.6-0.1c-0.1-0.1-0.1-0.3-0.1-0.6v-4.1L206.8,32.8z"></path>
		<path class="st0" d="M238.1,17c0-1.7-0.9-3.5-3.6-3.5c-3.2,0-4.8,3.4-4.8,5.8c0,0.4,0.1,1.7,1,2.7c0.6,0.6,1.4,0.9,2.7,0.9    C236.6,23,238.1,19.5,238.1,17z M231.3,19.2c0-2.5,1.2-5.3,3.3-5.3c1.2,0,2,1.1,2,3c0,2.1-0.9,5.5-3.1,5.5    C232,22.5,231.3,21.1,231.3,19.2z"></path>
		<path class="st0" d="M71.3,44.7c-0.9,0-1.8-0.3-2.6-0.9c-0.8-0.6-1.3-1.3-1.5-2.1c-0.1-0.3-0.2-0.5-0.3-0.5    c-0.1,0-0.2,0.1-0.2,0.3c0,0.3,0.1,0.7,0.3,1.3c0.2,0.6,0.2,0.9,0.3,0.9c0.1,0.4,0.1,0.6,0.2,0.7c0,0.1,0.1,0.2,0.2,0.3    c0.3,0.2,0.8,0.4,1.4,0.5c0.6,0.1,1.2,0.2,1.7,0.2c1.4,0,2.6-0.4,3.5-1.2c0.9-0.8,1.4-1.8,1.4-3.1c0-1.9-1.3-3.2-3.8-4    c-1.3-0.4-2.1-0.7-2.4-0.9c-0.3-0.2-0.6-0.4-0.9-0.8c-0.3-0.4-0.5-0.9-0.5-1.5c0-0.6,0.2-1.2,0.7-1.6c0.5-0.4,1.1-0.6,1.8-0.6    c0.9,0,1.8,0.2,2.5,0.7c0.7,0.5,1.2,1.1,1.5,1.8c0.1,0.3,0.2,0.5,0.3,0.5c0.1,0,0.2-0.1,0.2-0.3c0-0.1,0-0.2-0.1-0.4L75,32.9    c-0.1-0.6-0.1-0.9-0.1-1c0-0.3-0.1-0.5-0.3-0.5c-0.1,0-0.1,0-0.1,0l-0.1,0.1c-0.1,0.1-0.2,0.1-0.2,0.1c-0.1,0-0.1,0-0.2,0    l-0.7-0.3c-0.5-0.2-1.1-0.3-1.8-0.3c-1.3,0-2.3,0.3-3.2,1c-0.8,0.7-1.2,1.6-1.2,2.7c0,1,0.3,1.8,0.9,2.4c0.6,0.6,1.7,1.2,3.2,1.7    c1.5,0.5,2.3,0.9,2.6,1.1c0.6,0.5,0.9,1.2,0.9,1.9c0,0.8-0.3,1.5-1,2C73.1,44.4,72.3,44.7,71.3,44.7z"></path>
		<path class="st0" d="M92.9,21.2c0,0.6,0.1,1.9,1.3,1.9c1.4,0,3-1.6,3-2.1c0,0,0-0.1-0.1-0.1c-0.1,0-0.3,0.2-0.4,0.3    C96,21.8,95.4,22,94.9,22c-0.7,0-0.8-0.6-0.8-1.1c0-0.5,0.1-1,0.1-1.3l0.7-4.6c0-0.4,0.1-0.4,0.3-0.4l1.2,0c0.2,0,0.9,0,1.1-0.2    c0,0,0.1-0.1,0.1-0.2c0-0.4-0.2-0.4-0.9-0.4c-0.1,0-1.1,0-1.2,0c-0.2,0-0.3,0-0.3-0.3l0.3-1.7c0-0.1,0-0.2,0-0.4    c0,0,0-0.1-0.1-0.1c-0.1,0-0.3,0.3-0.4,0.5c-0.9,1.6-1.6,1.9-2.3,2.3c-0.1,0-0.4,0.1-0.4,0.3c0,0.1,0.3,0.1,0.4,0.1l1,0.1    l-0.8,5.4C92.9,20.3,92.9,20.7,92.9,21.2z"></path>
		<path class="st0" d="M120.1,17.5c0-0.1,0.1-1.9-0.2-2.7c-0.2-0.5-0.6-1.1-1.4-1.1c-1.6,0-2.9,1.1-3.9,2.5h0c0-0.8,0-2.5-0.9-2.5    c-1,0-1.9,1.8-1.9,2.4c0,0.1,0,0.3,0.2,0.3c0.1,0,0.2-0.1,0.3-0.3c0.2-0.4,0.4-0.9,0.9-0.9c0.6,0,0.6,1,0.6,1.2c0,0.4,0,1-0.1,1.3    l-0.7,4.5c-0.1,0.5-0.2,0.7-0.2,0.8c0,0.2,0,0.3,0.7,0.3c0.5,0,0.6,0,0.8-1.6l0.5-3c0.5-2.9,1.8-4.2,2.8-4.2    c1.1,0,1.4,1.3,1.4,2.2c0,0.5,0,1-0.1,1.5l-0.1,1c0,0.5-0.2,2.5-0.2,2.9c0,0.2,0,1.1,0.8,1.1c1.2,0,2.5-1.7,2.5-2.2l0-0.2    c-0.2,0.2-0.9,1-1.1,1.1c-0.2,0.1-0.3,0.2-0.5,0.2c-0.3,0-0.4-0.3-0.4-0.8c0-0.5,0-1,0.1-1.4L120.1,17.5z"></path>
		<path class="st0" d="M262.7,44.8l-0.3,0.1c-0.2,0-0.3,0.1-0.3,0.2c0,0.1,0.1,0.2,0.3,0.2c0.1,0,0.2,0,0.3,0c0.2,0,0.8-0.1,1.8-0.1    c0.9,0,1.5,0,1.9,0.1c0.2,0,0.3,0,0.4,0c0.2,0,0.3-0.1,0.3-0.2c0-0.1-0.1-0.2-0.3-0.2c-0.6-0.1-1.1-0.3-1.3-0.5    c-0.2-0.2-0.5-0.7-0.8-1.5l-0.2-0.6L260.1,31c-0.1-0.2-0.2-0.3-0.3-0.3c-0.1,0-0.2,0.1-0.3,0.3l-5.2,11.6l-0.3,0.7    c-0.1,0.3-0.3,0.6-0.6,0.9c-0.2,0.3-0.4,0.5-0.6,0.5l-0.4,0.1c-0.1,0-0.2,0.1-0.2,0.2c0,0.1,0.1,0.2,0.3,0.2c0,0,0.2,0,0.6-0.1    c0.1,0,0.3,0,0.5,0c0.4,0,0.8,0,1.1,0l1,0.1c0.2,0,0.3,0,0.3,0c0.2,0,0.3-0.1,0.3-0.2c0-0.1-0.1-0.2-0.3-0.2    c-0.5-0.1-0.8-0.2-0.9-0.4c-0.2-0.1-0.2-0.4-0.2-0.7c0-0.3,0.2-0.8,0.5-1.5l0.7-1.5c0.2-0.5,0.4-0.7,0.5-0.8    c0.1-0.1,0.4-0.1,0.9-0.1h3.7c0.4,0,0.6,0,0.7,0.1c0.1,0.1,0.2,0.3,0.3,0.7l0.5,1.3c0.4,1.1,0.6,1.8,0.6,2.2    C263.2,44.5,263.1,44.7,262.7,44.8z M260.8,38.9h-3.1l-0.3,0c-0.3,0-0.5-0.1-0.5-0.3c0-0.1,0-0.2,0.1-0.4l2-4.4    c0.1-0.1,0.1-0.2,0.2-0.2c0.1,0,0.2,0.1,0.3,0.3l0.1,0.2l1.6,4l0,0.2c0,0.1,0.1,0.2,0.1,0.2C261.3,38.8,261.1,38.9,260.8,38.9z"></path>
		<path class="st0" d="M96.6,42.9c0.4,0.8,1.1,1.4,2,1.8c0.9,0.4,2,0.7,3.1,0.7c1,0,1.9-0.2,2.8-0.6c0.9-0.4,1.5-0.9,2-1.5    c0.7-1,1.1-2.4,1.1-4.3v-5c0-0.8,0.1-1.4,0.2-1.7c0.1-0.3,0.4-0.5,0.8-0.7c0.1-0.1,0.2-0.1,0.2-0.2c0-0.1-0.1-0.2-0.2-0.2    c-0.1,0-0.2,0-0.4,0c-0.2,0-0.6,0-1.4,0c-0.4,0-0.7,0-0.9-0.1c-0.3,0-0.5-0.1-0.7-0.1c-0.1,0-0.2,0.1-0.2,0.2    c0,0.1,0.1,0.2,0.3,0.2c0.6,0.1,1,0.3,1.2,0.7c0.2,0.4,0.4,1,0.4,1.8v5.3c0,1.8-0.4,3.1-1.2,4c-0.8,0.9-2,1.3-3.6,1.3    c-1.8,0-3.1-0.5-3.9-1.6c-0.5-0.7-0.8-2-0.8-3.7v-5.1l0-0.7c0-0.7,0.1-1.1,0.2-1.4c0.1-0.3,0.4-0.4,0.8-0.5c0.2,0,0.3-0.1,0.3-0.2    c0-0.1-0.1-0.2-0.2-0.2c-0.1,0-0.3,0-0.5,0c-0.3,0-0.5,0-0.6,0h-0.8l-0.8,0c-0.1,0-0.4,0-0.7,0c-0.3,0-0.5,0-0.7,0    c-0.3,0-0.4,0.1-0.4,0.2c0,0.1,0.1,0.2,0.3,0.2c0.6,0.1,1,0.3,1.2,0.5c0.2,0.3,0.3,0.8,0.3,1.5l0,0.6v5.2    C95.8,40.9,96.1,42.1,96.6,42.9z"></path>
		<path class="st0" d="M109.3,20.1c-0.1,0-0.2,0.1-0.9,0.9c-0.2,0.2-0.6,0.7-1,0.7c-0.4,0-0.6-0.7-0.6-1.3c0-0.5,0.1-1.5,0.2-1.6    l0.6-3.1c0.1-0.3,0.4-1.9,0.5-2.4c0-0.1,0.1-0.4,0.1-0.5c0,0,0-0.2-0.1-0.2c-0.1,0-0.3,0.3-0.3,0.5c0,0.1-0.4,0.8-0.7,0.8    c-0.1,0-0.3,0-0.4-0.1c-0.5-0.2-0.9-0.2-1.3-0.2c-2.4,0-6,3.4-6,6.9c0,0.9,0.4,2.6,2.1,2.6c2.3,0,3.7-2.1,4.2-2.7    c0.2,1.4,0.4,2.7,1,2.7c1.1,0,2.9-2.3,2.9-2.7C109.4,20.3,109.4,20.1,109.3,20.1z M106.5,15.3l-0.7,3.5c-0.3,1.6-1.9,3.3-3.4,3.3    c-1.2,0-1.6-0.9-1.6-1.8c0-2.4,2.1-6.1,4.5-6.1C106,14.1,106.6,14.5,106.5,15.3z"></path>
		<path class="st0" d="M85.3,45.4c2.1,0,3.9-0.7,5.3-2.1c1.4-1.4,2.1-3.2,2.1-5.3c0-2-0.7-3.7-2-5c-1.4-1.3-3.1-2-5.2-2    c-1,0-2,0.2-3,0.6c-1,0.4-1.8,0.9-2.4,1.6c-0.6,0.6-1.1,1.4-1.4,2.3c-0.4,0.9-0.5,1.8-0.5,2.8c0,2.2,0.7,3.9,2,5.2    C81.3,44.8,83.1,45.4,85.3,45.4z M80.9,33.3c0.9-1.1,2.2-1.6,3.8-1.6c1.8,0,3.4,0.7,4.6,2c1.2,1.4,1.8,3,1.8,5.1    c0,1.8-0.5,3.2-1.5,4.4c-1,1.1-2.3,1.7-3.9,1.7c-1.7,0-3.2-0.7-4.4-2.1c-1.2-1.4-1.8-3.1-1.8-5.2C79.5,35.7,80,34.3,80.9,33.3z"></path>
		<path class="st0" d="M85.3,23.1c3.1,0,4.6-3.5,4.6-6c0-1.7-0.9-3.5-3.6-3.5c-3.2,0-4.8,3.4-4.8,5.8c0,0.4,0.1,1.7,1,2.7    C83.2,22.7,84,23.1,85.3,23.1z M86.4,14.1c1.2,0,2,1.1,2,3c0,2.1-0.9,5.5-3.1,5.5c-1.5,0-2.2-1.4-2.2-3.3    C83.1,16.9,84.3,14.1,86.4,14.1z"></path>
		<path class="st0" d="M78.6,18.2c0-1.9-1.3-3-3.8-3.3v0c1.2-0.3,1.5-0.4,1.9-0.6c0.6-0.3,1.8-1.2,1.8-3c0-0.5-0.1-1.6-1.2-2.6    c-0.9-0.8-2.3-0.9-3.5-0.9c-0.2,0-0.9,0-1.6,0c-0.7,0-1.4,0.1-1.7,0.1c-0.2,0-0.6,0-1.1-0.1c-0.4,0-0.9-0.1-1.1-0.1    c-0.5,0-0.5,0.2-0.5,0.3c0,0.3,0.2,0.3,0.5,0.3c0.7,0,0.9,0.2,1.2,0.5c0.3,0.4,0.4,0.6,0.4,0.9c0,0.4,0,0.8-0.1,1.2    c-0.4,2.6-0.7,5.9-1,8.9c-0.1,1.2-0.3,2.7-1.7,2.8c-0.3,0-0.4,0.1-0.4,0.3c0,0.2,0.1,0.3,0.4,0.3c0.2,0,1.8-0.1,2.2-0.1    c0.3,0,1,0,1.8,0.1c0.7,0,1.5,0.1,1.8,0.1C75.8,23,78.6,21.1,78.6,18.2z M70.9,13.2l0.4-3.6c0.2-1.2,0.4-1.4,1.7-1.4    c0.8,0,1.6,0.1,2.4,0.6c1.1,0.7,1.4,1.9,1.4,2.6c0,0.7-0.3,1.6-0.8,2.1c-0.7,0.7-1.8,1-3.1,1c-0.3,0-1.2,0-2-0.1    C70.8,14,70.8,14,70.9,13.2z M75.5,21.4c-1.1,0.9-2.6,0.9-3.4,0.9c-1.4,0-2.1-0.3-2.1-1.2c0-0.3,0.1-1.6,0.3-2.5    c0-0.3,0.3-3.3,0.3-3.4c0-0.2,0.1-0.3,0.4-0.3c2.6,0,5.8,0.4,5.8,3.5C76.8,18.9,76.8,20.3,75.5,21.4z"></path>
		<path class="st0" d="M127.5,10.8l0.3-0.3c0.1-0.1,0.1-0.2,0.1-0.3c0-0.1-0.5-1.1-0.7-1.1c-0.1,0-0.9,0.9-0.9,1    c0,0,0.5,1.2,0.7,1.2C127.1,11.3,127.4,10.9,127.5,10.8z"></path>
		<path class="st0" d="M124.8,21.6c0,0.5,0.2,1.5,0.6,1.5c0.7,0,2.5-1.4,2.5-2.4c0-0.1,0-0.2-0.1-0.2c-0.1,0-0.5,0.6-0.6,0.7    c-0.1,0.1-0.5,0.5-0.8,0.5c-0.4,0-0.4-0.5-0.4-0.7c0-0.5,0.1-1.2,0.1-1.5l0.8-4.6c0-0.2,0.2-1.1,0.2-1.2c0-0.1-0.1-0.1-0.2-0.1    c-0.2,0-1.3,0.2-1.6,0.3c-0.7,0.1-0.8,0.1-1.2,0.1c-0.2,0-0.3,0.1-0.3,0.3c0,0.1,0.1,0.1,0.2,0.1c0.1,0,0.6-0.1,0.7-0.1    c0.2,0,0.5,0,0.8,0.2c0.1,0.2,0.1,0.2,0.1,0.3c0,0.1,0,0.3,0,0.5C124.9,20.1,124.8,20.6,124.8,21.6z"></path>
		<path class="st0" d="M136,43.1c0,1-0.4,1.6-1.1,1.7c-0.2,0-0.3,0.1-0.3,0.2c0,0.1,0.1,0.2,0.2,0.2c0,0,0.3,0,0.7-0.1    c0.2,0,0.4,0,0.5,0l0.8,0l0.7,0c0.5,0,0.9,0,1,0c0.2,0,0.4,0.1,0.5,0.1c0.2,0,0.3-0.1,0.3-0.2c0-0.1-0.1-0.2-0.3-0.2    c-0.6-0.1-1-0.2-1.2-0.5c-0.2-0.3-0.3-0.8-0.3-1.5V33c0-0.3,0.1-0.6,0.2-0.9c0.1-0.3,0.3-0.4,0.5-0.5l0.4-0.1    c0.2,0,0.2-0.1,0.2-0.2c0-0.1-0.1-0.2-0.2-0.2c-0.1,0-0.2,0-0.4,0c-0.3,0-0.8,0.1-1.5,0.1c-0.5,0-1,0-1.4-0.1    c-0.3,0-0.6-0.1-0.7-0.1c-0.2,0-0.2,0.1-0.3,0.2c0,0.1,0.1,0.2,0.3,0.2c0.5,0.1,0.8,0.3,1,0.6c0.2,0.3,0.3,0.8,0.3,1.5v3.5    c0,0.2,0,0.3-0.1,0.4c-0.1,0.1-0.3,0.1-0.6,0.1h-6c-0.4,0-0.7,0-0.7-0.1c-0.1-0.1-0.1-0.3-0.1-0.7v-3.6c0-0.5,0.1-0.9,0.2-1.1    c0.2-0.2,0.5-0.4,0.9-0.5c0.2,0,0.3-0.1,0.3-0.2c0-0.1-0.1-0.2-0.3-0.2c-0.1,0-0.2,0-0.4,0c-0.4,0.1-0.9,0.1-1.4,0.1    c-0.7,0-1.3,0-1.9-0.1c-0.3,0-0.5-0.1-0.6-0.1c-0.2,0-0.3,0.1-0.3,0.2c0,0.1,0.1,0.2,0.3,0.2c0.6,0.1,1,0.3,1.2,0.5    c0.2,0.3,0.3,0.7,0.3,1.3v8.8c0,1-0.1,1.6-0.2,2c-0.1,0.4-0.3,0.6-0.6,0.7l-0.5,0.1c-0.2,0-0.3,0.1-0.3,0.2c0,0.1,0.1,0.2,0.3,0.2    c0.1,0,0.3,0,0.6,0c0.3,0,0.5,0,0.6,0l0.7,0l0.9,0c0.6,0,1,0,1.2,0c0.2,0,0.4,0,0.5,0c0.2,0,0.3-0.1,0.3-0.2    c0-0.1-0.1-0.2-0.4-0.3c-0.6-0.1-1-0.2-1.3-0.5c-0.2-0.3-0.3-0.8-0.3-1.5v-3.7c0-0.3,0-0.5,0.1-0.6c0.1-0.1,0.3-0.1,0.7-0.1h6    c0.3,0,0.6,0,0.6,0.1c0.1,0.1,0.1,0.2,0.1,0.6v3.7L136,43.1z"></path>
		<path class="st0" d="M117.6,32.5c0.1-0.1,0.3-0.1,0.6-0.1h2.9c0.6,0,1,0.1,1.2,0.2c0.2,0.1,0.3,0.5,0.4,0.9c0,0.2,0.1,0.3,0.2,0.3    c0.2,0,0.2-0.1,0.2-0.3c0-0.1,0-0.3-0.1-0.5c0-0.2-0.1-0.5-0.1-0.9c0-0.4,0-0.6-0.1-0.7c-0.1-0.1-0.3-0.1-0.7-0.1h-11    c-0.2,0-0.4,0.1-0.5,0.1c-0.1,0.1-0.1,0.3-0.1,0.6c0,0.3-0.1,0.7-0.2,1.2c-0.1,0.4-0.1,0.6-0.1,0.8c0,0.2,0.1,0.3,0.2,0.3    c0.1,0,0.2-0.1,0.3-0.4c0.1-0.6,0.3-1,0.6-1.2c0.2-0.2,0.6-0.3,1.2-0.3h2.7c0.3,0,0.4,0,0.5,0.1c0.1,0.1,0.1,0.2,0.1,0.5l0,0.3    v10.1c0,0.6-0.1,1-0.3,1.2c-0.2,0.2-0.5,0.4-1.1,0.4c-0.2,0-0.3,0.1-0.3,0.2c0,0.1,0.1,0.2,0.3,0.2c0.1,0,0.3,0,0.7-0.1    c0.2,0,0.4,0,0.7,0l0.8,0l0.7,0c0.5,0,0.8,0,0.9,0c0.3,0,0.4,0.1,0.5,0.1c0.2,0,0.3-0.1,0.3-0.2c0-0.1-0.1-0.2-0.4-0.2    c-0.9-0.2-1.3-0.6-1.3-1.4l0-0.4v-10C117.5,32.7,117.5,32.5,117.6,32.5z"></path>
		<path class="st0" d="M135.1,14.2c0.2,0,0.7,0,1.4,0.6c0.1,0.1,0.5,0.6,0.6,0.7c0.1,0.1,0.2,0.2,0.5,0.2c0.4,0,0.7-0.4,0.7-0.7    c0-0.6-1.1-1.5-2.6-1.5c-2.8,0-5,3.3-5,6c0,2,1.1,3.5,3.2,3.5c2.1,0,3.8-1.9,3.8-2.3c0-0.1-0.1-0.2-0.2-0.2    c-0.1,0-0.5,0.5-0.6,0.5c-0.6,0.6-1.3,0.8-2.1,0.8c-1.6,0-2.9-0.9-2.9-3.2C131.9,16.2,133.5,14.2,135.1,14.2z"></path>
	</g>
</g>
</svg>
